<svg version="1.2" xmlns="http://www.w3.org/2000/svg" viewBox="0 0 79 235" width="79" height="235">
	<title>12691164_5049738</title>
	<defs>
		<clipPath clipPathUnits="userSpaceOnUse" id="cp1">
			<path d="m-12-32h666.67v666.67h-666.67z"/>
		</clipPath>
		<clipPath clipPathUnits="userSpaceOnUse" id="cp2">
			<path d="m-12-32h666.67v666.67h-666.67z"/>
		</clipPath>
		<clipPath clipPathUnits="userSpaceOnUse" id="cp3">
			<path d="m-12-32h666.67v666.67h-666.67z"/>
		</clipPath>
		<clipPath clipPathUnits="userSpaceOnUse" id="cp4">
			<path d="m-12-32h666.67v666.67h-666.67z"/>
		</clipPath>
		<clipPath clipPathUnits="userSpaceOnUse" id="cp5">
			<path d="m-12-32h666.67v666.67h-666.67z"/>
		</clipPath>
		<clipPath clipPathUnits="userSpaceOnUse" id="cp6">
			<path d="m-12-32h666.67v666.67h-666.67z"/>
		</clipPath>
		<clipPath clipPathUnits="userSpaceOnUse" id="cp7">
			<path d="m-12-32h666.67v666.67h-666.67z"/>
		</clipPath>
		<clipPath clipPathUnits="userSpaceOnUse" id="cp8">
			<path d="m-12-32h666.67v666.67h-666.67z"/>
		</clipPath>
		<clipPath clipPathUnits="userSpaceOnUse" id="cp9">
			<path d="m-12-32h666.67v666.67h-666.67z"/>
		</clipPath>
		<clipPath clipPathUnits="userSpaceOnUse" id="cp10">
			<path d="m-12-32h666.67v666.67h-666.67z"/>
		</clipPath>
		<clipPath clipPathUnits="userSpaceOnUse" id="cp11">
			<path d="m-12-32h666.67v666.67h-666.67z"/>
		</clipPath>
		<clipPath clipPathUnits="userSpaceOnUse" id="cp12">
			<path d="m-12-32h666.67v666.67h-666.67z"/>
		</clipPath>
		<clipPath clipPathUnits="userSpaceOnUse" id="cp13">
			<path d="m-12-32h666.67v666.67h-666.67z"/>
		</clipPath>
		<clipPath clipPathUnits="userSpaceOnUse" id="cp14">
			<path d="m-12-32h666.67v666.67h-666.67z"/>
		</clipPath>
		<clipPath clipPathUnits="userSpaceOnUse" id="cp15">
			<path d="m-12-32h666.67v666.67h-666.67z"/>
		</clipPath>
		<clipPath clipPathUnits="userSpaceOnUse" id="cp16">
			<path d="m-12-32h666.67v666.67h-666.67z"/>
		</clipPath>
		<clipPath clipPathUnits="userSpaceOnUse" id="cp17">
			<path d="m-12-32h666.67v666.67h-666.67z"/>
		</clipPath>
		<clipPath clipPathUnits="userSpaceOnUse" id="cp18">
			<path d="m-12-32h666.67v666.67h-666.67z"/>
		</clipPath>
		<clipPath clipPathUnits="userSpaceOnUse" id="cp19">
			<path d="m-12-32h666.67v666.67h-666.67z"/>
		</clipPath>
		<clipPath clipPathUnits="userSpaceOnUse" id="cp20">
			<path d="m-12-32h666.67v666.67h-666.67z"/>
		</clipPath>
		<clipPath clipPathUnits="userSpaceOnUse" id="cp21">
			<path d="m-12-32h666.67v666.67h-666.67z"/>
		</clipPath>
		<clipPath clipPathUnits="userSpaceOnUse" id="cp22">
			<path d="m-12-32h666.67v666.67h-666.67z"/>
		</clipPath>
		<clipPath clipPathUnits="userSpaceOnUse" id="cp23">
			<path d="m-12-32h666.67v666.67h-666.67z"/>
		</clipPath>
		<clipPath clipPathUnits="userSpaceOnUse" id="cp24">
			<path d="m-12-32h666.67v666.67h-666.67z"/>
		</clipPath>
		<clipPath clipPathUnits="userSpaceOnUse" id="cp25">
			<path d="m-12-32h666.67v666.67h-666.67z"/>
		</clipPath>
		<clipPath clipPathUnits="userSpaceOnUse" id="cp26">
			<path d="m-12-32h666.67v666.67h-666.67z"/>
		</clipPath>
		<clipPath clipPathUnits="userSpaceOnUse" id="cp27">
			<path d="m-12-32h666.67v666.67h-666.67z"/>
		</clipPath>
		<clipPath clipPathUnits="userSpaceOnUse" id="cp28">
			<path d="m-12-32h666.67v666.67h-666.67z"/>
		</clipPath>
		<clipPath clipPathUnits="userSpaceOnUse" id="cp29">
			<path d="m-12-32h666.67v666.67h-666.67z"/>
		</clipPath>
		<clipPath clipPathUnits="userSpaceOnUse" id="cp30">
			<path d="m-12-32h666.67v666.67h-666.67z"/>
		</clipPath>
		<clipPath clipPathUnits="userSpaceOnUse" id="cp31">
			<path d="m-12-32h666.67v666.67h-666.67z"/>
		</clipPath>
		<clipPath clipPathUnits="userSpaceOnUse" id="cp32">
			<path d="m-12-32h666.67v666.67h-666.67z"/>
		</clipPath>
		<clipPath clipPathUnits="userSpaceOnUse" id="cp33">
			<path d="m-12-32h666.67v666.67h-666.67z"/>
		</clipPath>
		<clipPath clipPathUnits="userSpaceOnUse" id="cp34">
			<path d="m-12-32h666.67v666.67h-666.67z"/>
		</clipPath>
		<clipPath clipPathUnits="userSpaceOnUse" id="cp35">
			<path d="m-12-32h666.67v666.67h-666.67z"/>
		</clipPath>
		<clipPath clipPathUnits="userSpaceOnUse" id="cp36">
			<path d="m-12-32h666.67v666.67h-666.67z"/>
		</clipPath>
		<clipPath clipPathUnits="userSpaceOnUse" id="cp37">
			<path d="m-12-32h666.67v666.67h-666.67z"/>
		</clipPath>
		<clipPath clipPathUnits="userSpaceOnUse" id="cp38">
			<path d="m-12-32h666.67v666.67h-666.67z"/>
		</clipPath>
		<clipPath clipPathUnits="userSpaceOnUse" id="cp39">
			<path d="m-12-32h666.67v666.67h-666.67z"/>
		</clipPath>
		<clipPath clipPathUnits="userSpaceOnUse" id="cp40">
			<path d="m-12-32h666.67v666.67h-666.67z"/>
		</clipPath>
		<clipPath clipPathUnits="userSpaceOnUse" id="cp41">
			<path d="m-12-32h666.67v666.67h-666.67z"/>
		</clipPath>
		<clipPath clipPathUnits="userSpaceOnUse" id="cp42">
			<path d="m-12-32h666.67v666.67h-666.67z"/>
		</clipPath>
		<clipPath clipPathUnits="userSpaceOnUse" id="cp43">
			<path d="m-12-32h666.67v666.67h-666.67z"/>
		</clipPath>
		<clipPath clipPathUnits="userSpaceOnUse" id="cp44">
			<path d="m-12-32h666.67v666.67h-666.67z"/>
		</clipPath>
		<clipPath clipPathUnits="userSpaceOnUse" id="cp45">
			<path d="m-12-32h666.67v666.67h-666.67z"/>
		</clipPath>
		<clipPath clipPathUnits="userSpaceOnUse" id="cp46">
			<path d="m-12-32h666.67v666.67h-666.67z"/>
		</clipPath>
		<clipPath clipPathUnits="userSpaceOnUse" id="cp47">
			<path d="m-12-32h666.67v666.67h-666.67z"/>
		</clipPath>
		<clipPath clipPathUnits="userSpaceOnUse" id="cp48">
			<path d="m-12-32h666.67v666.67h-666.67z"/>
		</clipPath>
		<clipPath clipPathUnits="userSpaceOnUse" id="cp49">
			<path d="m-12-32h666.67v666.67h-666.67z"/>
		</clipPath>
		<clipPath clipPathUnits="userSpaceOnUse" id="cp50">
			<path d="m-12-32h666.67v666.67h-666.67z"/>
		</clipPath>
		<clipPath clipPathUnits="userSpaceOnUse" id="cp51">
			<path d="m-12-32h666.67v666.67h-666.67z"/>
		</clipPath>
		<clipPath clipPathUnits="userSpaceOnUse" id="cp52">
			<path d="m-12-32h666.67v666.67h-666.67z"/>
		</clipPath>
		<clipPath clipPathUnits="userSpaceOnUse" id="cp53">
			<path d="m-12-32h666.67v666.67h-666.67z"/>
		</clipPath>
		<clipPath clipPathUnits="userSpaceOnUse" id="cp54">
			<path d="m-12-32h666.67v666.67h-666.67z"/>
		</clipPath>
		<clipPath clipPathUnits="userSpaceOnUse" id="cp55">
			<path d="m-12-32h666.67v666.67h-666.67z"/>
		</clipPath>
		<clipPath clipPathUnits="userSpaceOnUse" id="cp56">
			<path d="m-12-32h666.67v666.67h-666.67z"/>
		</clipPath>
		<clipPath clipPathUnits="userSpaceOnUse" id="cp57">
			<path d="m-12-32h666.67v666.67h-666.67z"/>
		</clipPath>
		<clipPath clipPathUnits="userSpaceOnUse" id="cp58">
			<path d="m-12-32h666.67v666.67h-666.67z"/>
		</clipPath>
		<clipPath clipPathUnits="userSpaceOnUse" id="cp59">
			<path d="m-12-32h666.67v666.67h-666.67z"/>
		</clipPath>
		<clipPath clipPathUnits="userSpaceOnUse" id="cp60">
			<path d="m-12-32h666.67v666.67h-666.67z"/>
		</clipPath>
		<clipPath clipPathUnits="userSpaceOnUse" id="cp61">
			<path d="m-12-32h666.67v666.67h-666.67z"/>
		</clipPath>
		<clipPath clipPathUnits="userSpaceOnUse" id="cp62">
			<path d="m-12-32h666.67v666.67h-666.67z"/>
		</clipPath>
		<clipPath clipPathUnits="userSpaceOnUse" id="cp63">
			<path d="m-12-32h666.67v666.67h-666.67z"/>
		</clipPath>
		<clipPath clipPathUnits="userSpaceOnUse" id="cp64">
			<path d="m-12-32h666.67v666.67h-666.67z"/>
		</clipPath>
		<clipPath clipPathUnits="userSpaceOnUse" id="cp65">
			<path d="m-12-32h666.67v666.67h-666.67z"/>
		</clipPath>
		<clipPath clipPathUnits="userSpaceOnUse" id="cp66">
			<path d="m-12-32h666.67v666.67h-666.67z"/>
		</clipPath>
		<clipPath clipPathUnits="userSpaceOnUse" id="cp67">
			<path d="m-12-32h666.67v666.67h-666.67z"/>
		</clipPath>
		<clipPath clipPathUnits="userSpaceOnUse" id="cp68">
			<path d="m-12-32h666.67v666.67h-666.67z"/>
		</clipPath>
		<clipPath clipPathUnits="userSpaceOnUse" id="cp69">
			<path d="m-12-32h666.67v666.67h-666.67z"/>
		</clipPath>
		<clipPath clipPathUnits="userSpaceOnUse" id="cp70">
			<path d="m-12-32h666.67v666.67h-666.67z"/>
		</clipPath>
		<clipPath clipPathUnits="userSpaceOnUse" id="cp71">
			<path d="m-12-32h666.67v666.67h-666.67z"/>
		</clipPath>
		<clipPath clipPathUnits="userSpaceOnUse" id="cp72">
			<path d="m-12-32h666.67v666.67h-666.67z"/>
		</clipPath>
		<clipPath clipPathUnits="userSpaceOnUse" id="cp73">
			<path d="m-12-32h666.67v666.67h-666.67z"/>
		</clipPath>
		<clipPath clipPathUnits="userSpaceOnUse" id="cp74">
			<path d="m-12-32h666.67v666.67h-666.67z"/>
		</clipPath>
		<clipPath clipPathUnits="userSpaceOnUse" id="cp75">
			<path d="m-12-32h666.67v666.67h-666.67z"/>
		</clipPath>
		<clipPath clipPathUnits="userSpaceOnUse" id="cp76">
			<path d="m-12-32h666.67v666.67h-666.67z"/>
		</clipPath>
		<clipPath clipPathUnits="userSpaceOnUse" id="cp77">
			<path d="m-12-32h666.67v666.67h-666.67z"/>
		</clipPath>
		<clipPath clipPathUnits="userSpaceOnUse" id="cp78">
			<path d="m-12-32h666.67v666.67h-666.67z"/>
		</clipPath>
		<clipPath clipPathUnits="userSpaceOnUse" id="cp79">
			<path d="m-12-32h666.67v666.67h-666.67z"/>
		</clipPath>
		<clipPath clipPathUnits="userSpaceOnUse" id="cp80">
			<path d="m-12-32h666.67v666.67h-666.67z"/>
		</clipPath>
		<clipPath clipPathUnits="userSpaceOnUse" id="cp81">
			<path d="m-12-32h666.67v666.67h-666.67z"/>
		</clipPath>
		<clipPath clipPathUnits="userSpaceOnUse" id="cp82">
			<path d="m-12-32h666.67v666.67h-666.67z"/>
		</clipPath>
		<clipPath clipPathUnits="userSpaceOnUse" id="cp83">
			<path d="m-12-32h666.67v666.67h-666.67z"/>
		</clipPath>
		<clipPath clipPathUnits="userSpaceOnUse" id="cp84">
			<path d="m-12-32h666.67v666.67h-666.67z"/>
		</clipPath>
		<clipPath clipPathUnits="userSpaceOnUse" id="cp85">
			<path d="m-12-32h666.67v666.67h-666.67z"/>
		</clipPath>
		<clipPath clipPathUnits="userSpaceOnUse" id="cp86">
			<path d="m-12-32h666.67v666.67h-666.67z"/>
		</clipPath>
		<clipPath clipPathUnits="userSpaceOnUse" id="cp87">
			<path d="m-12-32h666.67v666.67h-666.67z"/>
		</clipPath>
		<clipPath clipPathUnits="userSpaceOnUse" id="cp88">
			<path d="m-12-32h666.67v666.67h-666.67z"/>
		</clipPath>
		<clipPath clipPathUnits="userSpaceOnUse" id="cp89">
			<path d="m-12-32h666.67v666.67h-666.67z"/>
		</clipPath>
		<clipPath clipPathUnits="userSpaceOnUse" id="cp90">
			<path d="m-12-32h666.67v666.67h-666.67z"/>
		</clipPath>
		<clipPath clipPathUnits="userSpaceOnUse" id="cp91">
			<path d="m-12-32h666.67v666.67h-666.67z"/>
		</clipPath>
		<clipPath clipPathUnits="userSpaceOnUse" id="cp92">
			<path d="m-12-32h666.67v666.67h-666.67z"/>
		</clipPath>
		<clipPath clipPathUnits="userSpaceOnUse" id="cp93">
			<path d="m-12-32h666.67v666.67h-666.67z"/>
		</clipPath>
		<clipPath clipPathUnits="userSpaceOnUse" id="cp94">
			<path d="m-12-32h666.67v666.67h-666.67z"/>
		</clipPath>
		<clipPath clipPathUnits="userSpaceOnUse" id="cp95">
			<path d="m-12-32h666.67v666.67h-666.67z"/>
		</clipPath>
		<clipPath clipPathUnits="userSpaceOnUse" id="cp96">
			<path d="m-12-32h666.67v666.67h-666.67z"/>
		</clipPath>
		<clipPath clipPathUnits="userSpaceOnUse" id="cp97">
			<path d="m-12-32h666.67v666.67h-666.67z"/>
		</clipPath>
		<clipPath clipPathUnits="userSpaceOnUse" id="cp98">
			<path d="m-12-32h666.67v666.67h-666.67z"/>
		</clipPath>
		<clipPath clipPathUnits="userSpaceOnUse" id="cp99">
			<path d="m-12-32h666.67v666.67h-666.67z"/>
		</clipPath>
		<clipPath clipPathUnits="userSpaceOnUse" id="cp100">
			<path d="m-12-32h666.67v666.67h-666.67z"/>
		</clipPath>
		<clipPath clipPathUnits="userSpaceOnUse" id="cp101">
			<path d="m-12-32h666.67v666.67h-666.67z"/>
		</clipPath>
		<clipPath clipPathUnits="userSpaceOnUse" id="cp102">
			<path d="m-12-32h666.67v666.67h-666.67z"/>
		</clipPath>
		<clipPath clipPathUnits="userSpaceOnUse" id="cp103">
			<path d="m-12-32h666.67v666.67h-666.67z"/>
		</clipPath>
		<clipPath clipPathUnits="userSpaceOnUse" id="cp104">
			<path d="m-12-32h666.67v666.67h-666.67z"/>
		</clipPath>
		<clipPath clipPathUnits="userSpaceOnUse" id="cp105">
			<path d="m-12-32h666.67v666.67h-666.67z"/>
		</clipPath>
		<clipPath clipPathUnits="userSpaceOnUse" id="cp106">
			<path d="m-12-32h666.67v666.67h-666.67z"/>
		</clipPath>
		<clipPath clipPathUnits="userSpaceOnUse" id="cp107">
			<path d="m-12-32h666.67v666.67h-666.67z"/>
		</clipPath>
		<clipPath clipPathUnits="userSpaceOnUse" id="cp108">
			<path d="m-12-32h666.67v666.67h-666.67z"/>
		</clipPath>
	</defs>
	<style>
		.s0 { opacity: .38;fill: #ff5151 } 
		.s1 { fill: #3e3e3e } 
	</style>
	<g id="layer-MC1">
		<g id="Clip-Path: path3" clip-path="url(#cp1)">
		</g>
		<g id="Clip-Path: path5" clip-path="url(#cp2)">
		</g>
		<g id="Clip-Path: path7" clip-path="url(#cp3)">
		</g>
		<g id="Clip-Path: path9" clip-path="url(#cp4)">
		</g>
		<g id="Clip-Path: path19" clip-path="url(#cp5)">
		</g>
		<g id="Clip-Path: path21" clip-path="url(#cp6)">
		</g>
		<g id="Clip-Path: path23" clip-path="url(#cp7)">
		</g>
		<g id="Clip-Path: path25" clip-path="url(#cp8)">
		</g>
		<g id="Clip-Path: path27" clip-path="url(#cp9)">
		</g>
		<g id="Clip-Path: path29" clip-path="url(#cp10)">
		</g>
		<g id="Clip-Path: path31" clip-path="url(#cp11)">
		</g>
		<g id="Clip-Path: path33" clip-path="url(#cp12)">
		</g>
		<g id="Clip-Path: path35" clip-path="url(#cp13)">
		</g>
		<g id="Clip-Path: path37" clip-path="url(#cp14)">
		</g>
		<g id="Clip-Path: path39" clip-path="url(#cp15)">
		</g>
		<g id="Clip-Path: path41" clip-path="url(#cp16)">
		</g>
		<g id="Clip-Path: path43" clip-path="url(#cp17)">
		</g>
		<g id="Clip-Path: path45" clip-path="url(#cp18)">
		</g>
		<g id="Clip-Path: path47" clip-path="url(#cp19)">
		</g>
		<g id="Clip-Path: path49" clip-path="url(#cp20)">
		</g>
		<g id="Clip-Path: path51" clip-path="url(#cp21)">
		</g>
		<g id="Clip-Path: path53" clip-path="url(#cp22)">
		</g>
		<g id="Clip-Path: path55" clip-path="url(#cp23)">
		</g>
		<g id="Clip-Path: path57" clip-path="url(#cp24)">
		</g>
		<g id="Clip-Path: path59" clip-path="url(#cp25)">
		</g>
		<g id="Clip-Path: path61" clip-path="url(#cp26)">
		</g>
		<g id="Clip-Path: path63" clip-path="url(#cp27)">
		</g>
		<g id="Clip-Path: path65" clip-path="url(#cp28)">
		</g>
		<g id="Clip-Path: path67" clip-path="url(#cp29)">
		</g>
		<g id="Clip-Path: path69" clip-path="url(#cp30)">
		</g>
		<g id="Clip-Path: path71" clip-path="url(#cp31)">
		</g>
		<g id="Clip-Path: path73" clip-path="url(#cp32)">
		</g>
		<g id="Clip-Path: path75" clip-path="url(#cp33)">
		</g>
		<g id="Clip-Path: path77" clip-path="url(#cp34)">
		</g>
		<g id="Clip-Path: path79" clip-path="url(#cp35)">
		</g>
		<g id="Clip-Path: path81" clip-path="url(#cp36)">
		</g>
		<g id="Clip-Path: path83" clip-path="url(#cp37)">
		</g>
		<g id="Clip-Path: path85" clip-path="url(#cp38)">
		</g>
		<g id="Clip-Path: path87" clip-path="url(#cp39)">
		</g>
		<g id="Clip-Path: path89" clip-path="url(#cp40)">
		</g>
		<g id="Clip-Path: path91" clip-path="url(#cp41)">
		</g>
		<g id="Clip-Path: path93" clip-path="url(#cp42)">
		</g>
		<g id="Clip-Path: path95" clip-path="url(#cp43)">
		</g>
		<g id="Clip-Path: path97" clip-path="url(#cp44)">
		</g>
		<g id="Clip-Path: path99" clip-path="url(#cp45)">
			<path id="path99" class="s0" d="m63.1 217.3c-16-23.1-29.2-49.3-38.3-78.4-4.2-13.4-8.9-29.2-6.2-44.1 2.1-11.9 9.9-19.4 19.1-15.8 9.6 3.8 17.3 16.2 21.4 27.9 2.8 8 5.2 22.5-4.1 24.7-8.9 2.1-19.5-11.8-25.4-19.1-8.3-10.2-15.4-22.4-20.5-35.8-5.5-14.6-9.1-31.6-5.9-47.9 2.6-13.9 10.4-25 20.9-28.7 3.1-1 4.1 4.7 1.3 6.2-9.5 5-15.3 18.7-16.2 31.8-1 15.1 3.6 30.1 9.4 42.8 5.2 11.6 11.8 21.9 19.4 30.7 3.1 3.6 9.3 12 13.7 12.4 7.6 0.7 3.5-10.3 2.4-13.3-1-2.8-2.2-5.5-3.6-8.1-5.8-10.6-22.1-27.2-26.3-5.7-2.8 14.2 2.8 30.9 6.8 43.8 8.3 26.8 20 51.8 34.5 73.4 1.5 2.1-0.9 5.3-2.4 3.2z"/>
		</g>
		<g id="Clip-Path: path101" clip-path="url(#cp46)">
			<path id="path101" class="s0" d="m35.6 207.1c14.1 4.5 28.1 11.9 41.5 18.5q-3.2 2.9-6.5 5.8c-2.9-20.1-5.3-39.9-5.5-60.3-0.1-3.1 4.3-4 4.7-0.7 2.8 19.4 5.4 39.1 9.3 58.3 1 4.7-3 7.5-6.5 5.8-13.1-6.7-26.9-14.6-38.2-25-0.9-0.9 0.1-2.7 1.2-2.4z"/>
		</g>
		<g id="Clip-Path: path103" clip-path="url(#cp47)">
			<path id="path103" class="s1" d="m371 75c13.9 0 13.9 21.6 0 21.6-13.9 0-13.9-21.6 0-21.6z"/>
		</g>
		<g id="Clip-Path: path105" clip-path="url(#cp48)">
		</g>
		<g id="Clip-Path: path107" clip-path="url(#cp49)">
		</g>
		<g id="Clip-Path: path109" clip-path="url(#cp50)">
		</g>
		<g id="Clip-Path: path111" clip-path="url(#cp51)">
		</g>
		<g id="Clip-Path: path113" clip-path="url(#cp52)">
		</g>
		<g id="Clip-Path: path115" clip-path="url(#cp53)">
		</g>
		<g id="Clip-Path: path117" clip-path="url(#cp54)">
		</g>
		<g id="Clip-Path: path119" clip-path="url(#cp55)">
		</g>
		<g id="Clip-Path: path121" clip-path="url(#cp56)">
		</g>
		<g id="Clip-Path: path123" clip-path="url(#cp57)">
		</g>
		<g id="Clip-Path: path125" clip-path="url(#cp58)">
		</g>
		<g id="Clip-Path: path127" clip-path="url(#cp59)">
		</g>
		<g id="Clip-Path: path129" clip-path="url(#cp60)">
		</g>
		<g id="Clip-Path: path131" clip-path="url(#cp61)">
		</g>
		<g id="Clip-Path: path133" clip-path="url(#cp62)">
		</g>
		<g id="Clip-Path: path135" clip-path="url(#cp63)">
		</g>
		<g id="Clip-Path: path137" clip-path="url(#cp64)">
		</g>
		<g id="Clip-Path: path139" clip-path="url(#cp65)">
		</g>
		<g id="Clip-Path: path141" clip-path="url(#cp66)">
		</g>
		<g id="Clip-Path: path143" clip-path="url(#cp67)">
		</g>
		<g id="Clip-Path: path145" clip-path="url(#cp68)">
		</g>
		<g id="Clip-Path: path147" clip-path="url(#cp69)">
		</g>
		<g id="Clip-Path: path149" clip-path="url(#cp70)">
		</g>
		<g id="Clip-Path: path151" clip-path="url(#cp71)">
		</g>
		<g id="Clip-Path: path153" clip-path="url(#cp72)">
		</g>
		<g id="Clip-Path: path155" clip-path="url(#cp73)">
		</g>
		<g id="Clip-Path: path157" clip-path="url(#cp74)">
		</g>
		<g id="Clip-Path: path159" clip-path="url(#cp75)">
		</g>
		<g id="Clip-Path: path161" clip-path="url(#cp76)">
		</g>
		<g id="Clip-Path: path163" clip-path="url(#cp77)">
		</g>
		<g id="Clip-Path: path165" clip-path="url(#cp78)">
		</g>
		<g id="Clip-Path: path167" clip-path="url(#cp79)">
		</g>
		<g id="Clip-Path: path169" clip-path="url(#cp80)">
		</g>
		<g id="Clip-Path: path171" clip-path="url(#cp81)">
		</g>
		<g id="Clip-Path: path173" clip-path="url(#cp82)">
		</g>
		<g id="Clip-Path: path175" clip-path="url(#cp83)">
		</g>
		<g id="Clip-Path: path177" clip-path="url(#cp84)">
		</g>
		<g id="Clip-Path: path179" clip-path="url(#cp85)">
		</g>
		<g id="Clip-Path: path181" clip-path="url(#cp86)">
		</g>
		<g id="Clip-Path: path183" clip-path="url(#cp87)">
		</g>
		<g id="Clip-Path: path185" clip-path="url(#cp88)">
		</g>
		<g id="Clip-Path: path187" clip-path="url(#cp89)">
		</g>
		<g id="Clip-Path: path189" clip-path="url(#cp90)">
		</g>
		<g id="Clip-Path: path191" clip-path="url(#cp91)">
		</g>
		<g id="Clip-Path: path193" clip-path="url(#cp92)">
		</g>
		<g id="Clip-Path: path195" clip-path="url(#cp93)">
		</g>
		<g id="Clip-Path: path197" clip-path="url(#cp94)">
		</g>
		<g id="Clip-Path: path199" clip-path="url(#cp95)">
		</g>
		<g id="Clip-Path: path201" clip-path="url(#cp96)">
		</g>
		<g id="Clip-Path: path203" clip-path="url(#cp97)">
		</g>
		<g id="Clip-Path: path205" clip-path="url(#cp98)">
		</g>
		<g id="Clip-Path: path207" clip-path="url(#cp99)">
		</g>
		<g id="Clip-Path: path209" clip-path="url(#cp100)">
		</g>
		<g id="Clip-Path: path211" clip-path="url(#cp101)">
		</g>
		<g id="Clip-Path: path213" clip-path="url(#cp102)">
		</g>
		<g id="Clip-Path: path215" clip-path="url(#cp103)">
		</g>
		<g id="Clip-Path: path217" clip-path="url(#cp104)">
		</g>
		<g id="Clip-Path: path219" clip-path="url(#cp105)">
		</g>
		<g id="Clip-Path: path221" clip-path="url(#cp106)">
		</g>
		<g id="Clip-Path: path223" clip-path="url(#cp107)">
		</g>
		<g id="Clip-Path: path225" clip-path="url(#cp108)">
		</g>
	</g>
</svg>