<?xml version="1.0" standalone="no"?>
<!DOCTYPE svg PUBLIC "-//W3C//DTD SVG 20010904//EN"
 "http://www.w3.org/TR/2001/REC-SVG-20010904/DTD/svg10.dtd">
<svg version="1.0" xmlns="http://www.w3.org/2000/svg"
 width="1200.000000pt" height="1200.000000pt" viewBox="0 0 1200.000000 1200.000000"
 preserveAspectRatio="xMidYMid meet">

<g transform="translate(0.000000,1200.000000) scale(0.100000,-0.100000)"
fill="#000000" stroke="none">
<path d="M1465 11217 c-3 -8 -27 -132 -54 -275 -26 -144 -50 -265 -54 -268 -3
-3 -21 6 -40 20 -42 32 -58 33 -105 1 -33 -22 -47 -25 -134 -25 -82 0 -96 -2
-92 -15 5 -12 27 -15 107 -15 93 0 103 2 134 26 l35 26 54 -37 c29 -20 59 -35
66 -32 8 3 28 90 53 231 22 124 42 226 45 226 3 0 18 -71 33 -157 113 -644
130 -733 148 -733 19 0 14 -23 80 378 24 144 46 262 49 262 3 0 31 -82 63
-181 47 -145 62 -180 75 -177 11 2 30 39 56 106 21 56 42 102 46 102 4 0 10
-19 14 -42 4 -24 11 -60 17 -80 l10 -38 224 0 c140 0 225 4 225 10 0 6 -84 11
-217 12 l-218 3 -23 103 c-31 132 -44 133 -91 4 -19 -50 -38 -92 -42 -92 -4 0
-36 86 -69 190 -57 177 -75 212 -94 182 -3 -4 -26 -139 -53 -300 -26 -161 -50
-292 -53 -292 -3 0 -38 188 -79 418 -41 229 -77 428 -81 441 -7 29 -28 39 -35
18z"/>
<path d="M7985 10653 c-22 -22 -48 -51 -58 -66 -20 -30 -44 -35 -53 -12 -4 8
-15 15 -25 15 -12 0 -16 -5 -13 -15 4 -8 -1 -17 -10 -21 -11 -4 -14 -14 -10
-34 6 -26 3 -28 -30 -32 -30 -3 -35 -1 -31 13 3 10 -1 19 -10 23 -19 7 -20 26
-1 26 8 0 30 14 48 30 40 37 17 41 -32 5 -19 -14 -39 -25 -45 -25 -14 0 -50
-47 -59 -78 -9 -27 -36 -29 -36 -3 0 11 -4 23 -10 26 -5 3 -10 18 -10 31 0 35
-51 84 -87 84 -32 0 -73 -25 -73 -44 0 -29 -24 -36 -70 -20 -56 20 -132 14
-167 -12 -44 -33 -86 -127 -86 -192 0 -31 -4 -63 -9 -69 -7 -9 -4 -18 13 -32
l24 -19 -24 -26 c-20 -21 -22 -29 -13 -38 10 -10 17 -7 35 14 27 32 98 46 117
23 7 -8 21 -15 31 -15 11 0 19 -4 19 -9 0 -13 -26 -32 -41 -29 -8 2 -14 -3
-14 -11 0 -8 9 -16 20 -17 11 -2 29 -4 40 -6 16 -2 19 2 17 25 -3 26 11 37 22
18 9 -14 -18 -68 -44 -89 -35 -27 -196 -28 -210 -1 -17 30 -12 49 13 49 l22 0
-25 20 c-37 29 -80 24 -51 -6 6 -5 4 -16 -4 -28 -11 -15 -17 -16 -28 -7 -11 9
-17 8 -27 -4 -7 -8 -18 -15 -25 -15 -17 0 -25 -36 -11 -50 8 -9 8 -14 -1 -17
-7 -3 -13 -19 -13 -37 0 -41 -7 -48 -32 -33 -16 10 -21 9 -29 -5 -6 -10 -19
-18 -30 -18 -12 0 -32 -9 -46 -19 -19 -16 -30 -18 -50 -10 -13 5 -28 7 -33 4
-14 -9 -70 16 -70 31 0 8 -17 31 -37 50 -36 33 -41 35 -95 32 -71 -5 -140 -49
-199 -126 -55 -72 -69 -140 -46 -215 17 -53 77 -127 103 -127 7 0 17 -6 21
-13 9 -14 50 -35 78 -39 13 -2 21 -12 22 -28 l3 -25 -12 23 c-6 12 -17 22 -25
22 -17 0 -17 -26 0 -37 7 -4 21 -21 31 -38 28 -44 82 -95 100 -95 9 0 16 -7
16 -15 0 -9 -9 -15 -22 -15 -19 0 -20 -2 -8 -10 8 -5 25 -10 38 -10 12 0 22
-3 22 -6 0 -11 -49 -53 -81 -69 -16 -9 -29 -20 -29 -25 0 -6 -19 -10 -42 -10
-64 0 -117 -22 -134 -56 -22 -42 -32 -50 -46 -36 -7 7 -19 12 -28 12 -8 0 -23
8 -32 18 -36 37 -46 42 -50 24 -3 -10 -23 -22 -49 -29 -63 -18 -187 -118 -216
-173 -38 -74 -40 -130 -8 -195 35 -72 64 -106 128 -148 28 -19 62 -49 74 -65
28 -39 21 -66 -15 -57 -22 5 -24 3 -18 -18 3 -14 -2 -39 -14 -62 -45 -88 4
-271 87 -328 21 -14 51 -31 66 -38 24 -11 27 -17 22 -40 -5 -21 0 -37 18 -61
34 -46 67 -125 74 -178 3 -26 18 -62 34 -84 16 -22 29 -48 29 -57 0 -21 17
-54 53 -100 26 -34 27 -40 21 -110 -10 -107 -6 -222 9 -246 4 -6 2 -33 -3 -60
-19 -80 -6 -122 59 -206 96 -121 163 -167 244 -167 25 0 48 -4 51 -9 3 -5 8
-42 11 -82 8 -114 17 -183 25 -194 11 -15 20 -71 29 -180 7 -81 15 -115 44
-180 20 -45 41 -103 47 -130 26 -111 32 -127 61 -159 47 -54 104 -63 217 -35
50 12 97 19 104 16 8 -3 54 -85 102 -183 48 -99 98 -192 110 -209 64 -88 98
-158 112 -233 8 -42 19 -93 25 -112 16 -57 39 -230 39 -296 0 -55 -3 -63 -32
-91 -18 -17 -51 -41 -73 -52 -22 -12 -76 -49 -120 -81 -77 -57 -100 -68 -190
-87 -36 -7 -40 -11 -43 -41 -3 -32 -2 -33 19 -22 13 8 24 8 28 2 3 -5 31 -15
61 -22 30 -7 58 -19 63 -26 4 -7 15 -10 24 -7 14 6 15 0 7 -53 -5 -32 -9 -108
-8 -169 1 -179 49 -313 167 -470 33 -44 63 -82 66 -85 3 -3 32 -35 65 -73 57
-66 202 -185 212 -174 3 3 -4 15 -15 26 -12 12 -21 27 -20 34 0 10 2 10 6 0 2
-7 13 -13 24 -13 10 0 19 -4 19 -10 0 -18 22 -10 27 10 5 20 33 29 33 10 0 -5
5 -10 10 -10 6 0 10 7 10 15 0 8 8 15 18 16 48 2 66 7 77 23 8 10 19 14 30 9
14 -5 17 -3 12 10 -3 9 -3 16 1 15 14 -4 82 24 82 33 0 5 15 9 33 9 37 0 117
47 117 68 0 11 11 13 48 8 26 -4 77 -6 114 -6 37 1 76 -3 86 -9 13 -7 39 -7
76 -1 39 6 65 6 81 -2 19 -9 29 -7 49 6 35 22 59 20 85 -8 23 -25 51 -27 76
-6 10 8 15 8 21 -1 10 -18 34 18 34 52 0 15 6 29 13 31 17 6 19 138 1 138 -8
0 -11 6 -8 15 4 11 -6 18 -40 27 -49 13 -56 21 -30 36 13 7 10 13 -20 30 -20
12 -36 26 -36 31 0 19 22 23 40 6 13 -11 20 -13 25 -5 4 6 -1 17 -10 24 -25
18 -27 97 -4 141 11 19 19 45 19 58 0 17 10 28 36 40 25 13 34 22 30 33 -8 20
24 74 42 74 10 0 12 7 8 24 -5 22 5 33 91 97 107 79 118 90 100 101 -6 4 -9 9
-7 11 5 5 142 95 169 112 9 6 39 29 68 53 28 23 54 42 58 42 4 0 18 9 32 20
14 11 22 20 18 20 -4 0 6 13 23 30 61 58 74 32 63 -130 -4 -52 -6 -115 -6
-140 3 -129 6 -160 16 -160 7 0 17 -7 23 -16 24 -32 46 -7 72 81 5 16 20 35
32 41 13 6 37 24 53 40 19 18 41 29 59 29 40 0 55 -48 47 -153 -7 -86 -50
-293 -73 -348 -8 -19 -10 -34 -5 -34 12 0 55 125 88 255 39 153 39 295 1 375
-36 76 -64 100 -130 109 -68 9 -76 14 -99 65 -19 44 -18 61 37 384 3 18 23 67
45 109 21 42 39 87 39 100 0 13 6 23 13 23 8 0 17 19 23 48 6 31 14 46 23 44
9 -2 11 3 7 13 -3 9 3 24 15 36 15 15 19 28 14 46 -4 16 -2 22 5 18 5 -3 13 1
17 10 3 10 0 21 -7 25 -8 5 -9 9 -1 14 16 10 14 26 -4 26 -8 0 -15 5 -15 11 0
26 -17 -4 -18 -32 0 -21 -11 -42 -32 -64 -19 -20 -28 -37 -24 -48 10 -27 -7
-43 -23 -22 -12 17 -13 16 -13 -13 0 -22 -5 -32 -15 -32 -8 0 -15 -9 -15 -21
0 -16 -4 -19 -22 -14 -17 5 -19 4 -9 -4 12 -8 13 -12 2 -25 -10 -12 -17 -14
-27 -5 -24 20 -47 2 -41 -31 4 -16 2 -32 -3 -35 -6 -3 -10 -1 -10 6 0 7 -8 5
-20 -6 -12 -10 -18 -25 -16 -32 3 -8 -5 -18 -19 -25 -15 -7 -25 -20 -25 -33 0
-12 -13 -34 -30 -50 -16 -16 -30 -35 -30 -43 0 -7 -13 -27 -30 -44 -16 -16
-30 -34 -30 -39 0 -6 -11 -21 -24 -34 -21 -21 -42 -50 -108 -147 -10 -15 -18
-31 -18 -35 0 -13 -93 -143 -102 -143 -4 0 -8 -6 -8 -14 0 -8 -16 -27 -35 -43
-19 -15 -53 -44 -75 -64 -23 -20 -60 -42 -83 -49 -23 -6 -55 -20 -72 -30 -50
-30 -152 -49 -245 -46 -111 4 -209 17 -216 27 -3 5 -20 9 -38 9 -19 0 -39 7
-46 15 -7 8 -21 15 -31 15 -21 0 -130 63 -154 91 -10 10 -23 19 -29 19 -16 1
-136 160 -136 181 0 9 -7 19 -15 23 -17 6 -20 26 -4 26 6 0 17 -7 26 -15 19
-19 28 -12 18 12 -5 10 -10 29 -12 42 -2 14 -9 33 -14 44 -24 43 13 32 91 -27
45 -35 45 -35 158 -35 89 -1 112 2 112 13 0 8 15 17 35 20 25 5 35 12 35 25 0
22 -25 45 -39 37 -6 -4 -18 -2 -28 3 -10 6 -39 20 -65 31 -27 11 -48 26 -48
32 0 6 -7 16 -16 23 -13 9 -14 16 -6 31 10 17 11 17 17 -9 8 -31 9 -31 34 -15
15 9 24 8 44 -5 15 -9 28 -13 32 -8 8 13 67 22 181 26 176 6 246 16 304 43 30
14 63 34 73 45 21 24 21 28 2 21 -8 -4 -15 -10 -15 -14 0 -17 -153 -42 -234
-39 -44 2 -86 0 -93 -4 -6 -4 -54 -3 -107 3 -75 8 -107 16 -151 40 -30 16 -62
30 -70 30 -8 0 -15 7 -15 15 0 9 -11 20 -25 25 -15 6 -25 17 -25 29 0 23 -16
36 -25 21 -7 -12 -25 -4 -25 11 0 5 7 9 15 9 8 0 15 4 15 8 0 17 -12 21 -30
10 -13 -9 -24 -6 -48 12 -23 17 -28 26 -20 32 9 5 5 8 -9 8 -16 0 -23 6 -23
20 0 28 12 25 42 -9 15 -16 41 -31 62 -35 21 -4 40 -15 47 -27 8 -15 18 -20
36 -16 14 3 38 -2 53 -11 26 -15 28 -14 56 11 29 27 54 35 54 17 0 -16 27 -12
34 5 3 8 15 14 28 12 14 -1 22 3 21 11 -3 12 23 16 78 12 14 0 31 6 39 15 7 8
21 13 30 10 11 -3 20 1 24 10 3 8 13 15 22 15 9 0 28 6 42 14 30 16 83 39 126
56 23 8 31 8 38 -2 6 -10 10 -10 17 1 14 21 44 -5 36 -30 -10 -31 10 -22 58
26 42 41 87 59 87 35 0 -5 9 -10 20 -10 13 0 20 -7 20 -20 0 -11 4 -20 8 -20
13 0 232 264 232 280 0 4 9 10 20 13 15 4 20 0 20 -15 0 -26 17 -14 35 25 15
32 15 32 10 -23 -15 -149 -18 -243 -6 -236 6 4 11 28 11 53 0 57 23 138 62
222 26 56 29 70 23 120 -7 67 -33 151 -46 151 -5 0 -9 7 -9 15 0 8 -5 15 -10
15 -6 0 -13 8 -17 18 -6 17 -78 119 -98 137 -5 6 -27 30 -48 55 -21 25 -41 45
-45 45 -18 1 -52 27 -47 36 4 5 -6 14 -21 19 -15 6 -39 19 -54 30 -16 11 -31
20 -34 20 -19 0 3 -30 78 -110 101 -106 153 -181 195 -279 33 -77 39 -121 18
-121 -7 0 -27 -16 -46 -35 -39 -42 -60 -44 -152 -10 -124 44 -288 66 -497 65
-103 -1 -211 4 -241 9 -69 14 -188 14 -286 0 -92 -12 -137 -5 -300 47 -22 7
-64 15 -93 19 -51 6 -53 5 -70 -25 -26 -47 -40 -66 -45 -60 -7 7 11 100 23
122 13 22 13 41 1 34 -15 -10 -53 -147 -58 -211 -5 -54 -2 -66 28 -120 18 -33
43 -74 56 -91 13 -17 23 -36 23 -43 0 -7 5 -9 10 -6 6 4 18 1 26 -6 13 -10 14
-7 8 29 -4 23 -4 42 -2 42 3 0 17 -17 30 -37 29 -43 121 -139 190 -198 44 -37
46 -41 33 -59 -12 -16 -18 -17 -27 -8 -9 9 -9 12 0 12 7 0 12 5 12 11 0 6 -9
8 -20 4 -14 -5 -20 -2 -20 9 0 18 -8 20 -30 6 -12 -8 -12 -11 2 -27 9 -10 30
-45 47 -78 17 -33 45 -76 61 -94 31 -33 38 -68 8 -38 -8 9 -32 19 -52 23 -21
3 -50 16 -64 28 -35 27 -61 44 -90 56 -13 6 -40 26 -60 45 -20 19 -40 35 -45
35 -11 0 1 -43 45 -155 40 -103 43 -143 10 -112 -73 68 -94 93 -154 187 -133
207 -177 319 -183 471 -2 58 -7 118 -11 133 -4 16 -7 36 -8 45 -3 29 -27 91
-36 91 -5 0 -20 21 -33 48 -13 26 -31 61 -40 77 -8 17 -20 50 -27 75 -11 45
-18 250 -11 345 2 28 -4 90 -12 138 -14 77 -14 92 -1 122 8 19 19 35 26 35 6
0 19 6 27 14 14 12 40 12 181 0 258 -21 263 -17 23 21 -111 18 -113 19 -96 38
37 41 68 48 206 47 106 0 216 3 290 9 4 1 7 28 7 61 0 33 3 60 7 60 27 0 93
-45 109 -75 15 -29 24 -35 51 -35 29 0 33 3 33 26 0 15 4 23 10 19 23 -14 -23
-144 -71 -200 -9 -11 -27 -39 -39 -62 -12 -24 -26 -43 -31 -43 -5 0 -9 -16 -9
-35 0 -33 2 -35 34 -35 28 0 34 -4 38 -24 3 -15 0 -27 -8 -30 -23 -9 -61 -80
-67 -126 -4 -30 -13 -50 -26 -59 -12 -7 -21 -20 -21 -27 0 -8 -8 -14 -17 -14
-26 -1 -104 -61 -145 -112 -39 -47 -92 -138 -80 -137 4 0 31 30 61 67 77 94
138 143 176 140 21 -2 29 -7 26 -18 -9 -31 -1 -75 18 -93 21 -22 148 -41 167
-25 7 5 28 -1 55 -17 53 -30 73 -31 106 -5 22 17 35 19 117 13 92 -6 93 -6
114 21 l21 28 -25 38 c-29 43 -68 59 -93 36 -14 -13 -22 -10 -75 25 -67 45
-110 50 -171 19 -51 -26 -79 -18 -98 28 -20 49 -40 150 -35 187 4 37 38 49 38
13 0 -32 11 -45 42 -53 24 -6 29 -3 38 20 5 14 10 50 10 79 0 28 4 56 8 61 5
6 15 42 22 80 7 39 16 72 20 75 3 3 21 37 40 75 28 59 34 84 38 159 5 89 2
104 -49 272 -5 17 -9 38 -9 47 0 9 -4 17 -9 17 -5 0 -12 13 -16 28 -3 16 -29
59 -57 96 -42 57 -54 67 -74 63 -13 -2 -24 0 -24 4 0 5 -6 9 -14 9 -8 0 -16 6
-19 13 -12 31 -225 50 -379 34 -32 -3 -60 -2 -63 3 -3 5 -19 16 -36 24 -29 14
-30 14 -23 -6 5 -17 3 -20 -11 -15 -9 4 -21 7 -26 7 -5 0 -9 7 -9 15 0 17 -35
21 -45 5 -4 -6 -11 -7 -17 -4 -6 4 3 18 22 34 18 15 29 33 26 39 -4 6 0 11 9
11 9 0 13 5 10 10 -4 6 -11 8 -16 5 -5 -4 -9 0 -9 9 0 8 13 17 30 21 28 6 43
25 20 25 -5 0 -10 5 -10 10 0 6 6 10 13 10 8 0 22 9 32 20 14 16 16 23 7 32
-14 14 -16 62 -3 54 12 -8 20 39 10 55 -4 7 -5 18 -2 23 8 13 10 38 13 164 2
56 6 102 10 102 7 0 18 64 20 113 1 10 10 27 20 37 27 27 126 80 149 80 12 0
21 4 21 8 0 10 67 44 120 62 19 6 96 15 171 20 74 4 152 13 172 21 31 11 47
10 113 -4 91 -20 123 -45 142 -110 7 -24 30 -66 51 -93 24 -32 40 -66 45 -95
17 -112 29 -143 75 -190 52 -52 79 -62 168 -64 56 -2 64 1 78 22 9 12 20 23
27 23 6 0 16 8 23 17 11 15 15 15 30 3 15 -12 19 -12 29 0 6 8 42 30 79 49 37
19 72 41 77 50 8 12 10 9 8 -14 -3 -25 0 -30 17 -27 16 2 17 1 5 -7 -12 -8
-13 -16 -3 -41 6 -17 7 -32 2 -36 -17 -10 -9 -33 13 -36 15 -2 30 -18 44 -47
12 -23 27 -48 33 -54 6 -6 11 -18 11 -26 0 -19 134 -81 173 -81 27 0 81 47 91
78 8 24 76 57 86 42 5 -8 12 -7 22 4 18 17 29 11 21 -10 -5 -13 18 -19 55 -15
7 1 12 -9 12 -25 0 -15 7 -32 15 -38 9 -6 18 -35 22 -66 3 -30 10 -60 15 -67
15 -18 0 -37 -18 -22 -12 10 -14 2 -14 -52 1 -114 0 -138 -10 -144 -6 -3 -10
-17 -10 -30 0 -13 -5 -27 -10 -30 -6 -4 -7 -11 -4 -17 4 -6 9 -5 15 3 12 20
22 4 11 -18 -5 -10 -8 -39 -7 -65 2 -27 2 -48 0 -48 -2 0 -14 17 -26 37 -13
20 -41 58 -64 84 -22 26 -55 66 -73 89 -43 52 -97 86 -142 88 -19 1 -60 6 -90
11 -30 5 -57 6 -60 2 -3 -5 -61 -8 -131 -8 -138 -1 -227 -15 -277 -44 -18 -10
-30 -15 -27 -9 14 23 -14 7 -48 -26 -42 -42 -65 -100 -48 -117 8 -8 17 -5 34
11 29 27 48 28 70 2 12 -14 24 -19 41 -14 13 3 27 1 30 -5 5 -7 14 -6 29 3 28
18 143 46 182 44 17 0 41 5 54 11 13 7 66 15 119 18 87 6 96 5 84 -9 -11 -14
-8 -16 24 -16 23 0 40 -6 46 -15 4 -9 24 -21 44 -27 22 -8 34 -17 30 -25 -3
-8 5 -16 19 -19 29 -7 85 -65 85 -87 0 -9 7 -22 15 -29 8 -7 15 -23 15 -35 0
-13 7 -25 15 -29 8 -3 15 -12 15 -20 0 -7 7 -16 15 -20 8 -3 15 -13 16 -23 1
-27 43 -98 54 -93 6 3 9 35 7 73 -2 43 1 74 9 83 9 11 9 18 1 26 -7 7 -12 25
-12 41 0 15 -5 37 -11 49 -6 11 -8 22 -5 26 4 3 12 -9 18 -26 8 -20 19 -32 30
-32 15 0 18 9 18 58 1 64 13 55 24 -18 4 -24 14 -52 23 -62 10 -11 12 -18 5
-18 -7 0 -12 -7 -12 -15 0 -18 17 -20 23 -2 2 6 7 9 11 6 4 -4 0 -13 -7 -21
-16 -15 -12 -68 4 -68 5 0 9 -16 9 -35 0 -20 7 -51 14 -70 8 -19 11 -35 5 -35
-12 0 -12 -201 0 -232 5 -15 4 -47 -5 -88 -8 -37 -12 -104 -10 -157 3 -74 1
-93 -10 -93 -11 0 -14 20 -14 89 0 63 -4 92 -14 100 -11 9 -14 3 -19 -31 -4
-37 0 -193 7 -268 2 -14 4 -34 5 -45 1 -18 3 -17 14 5 7 14 19 25 27 25 12 0
14 -13 12 -65 -2 -36 -7 -81 -11 -100 -4 -20 -5 -44 -1 -54 6 -18 7 -18 13 -2
4 10 4 28 1 41 -3 12 -1 26 5 29 6 4 11 19 11 33 0 14 7 31 15 37 8 6 23 55
35 111 38 195 57 237 142 325 81 83 100 97 165 127 70 32 114 25 160 -24 56
-59 41 -104 -32 -96 -59 7 -150 -42 -216 -116 -27 -30 -49 -59 -49 -63 0 -17
20 -7 65 32 25 22 53 40 61 40 8 0 24 -16 35 -35 12 -19 24 -35 27 -36 53 -6
72 -26 72 -75 0 -52 18 -49 25 3 12 83 56 222 70 217 7 -3 29 6 50 20 21 14
46 26 56 26 11 0 19 4 19 9 0 8 40 37 96 69 12 7 29 31 37 55 8 23 18 50 22
60 5 13 2 17 -14 17 -17 0 -21 6 -21 30 0 17 -7 45 -16 62 -19 37 -12 44 56
54 52 8 70 19 70 45 0 10 19 30 42 46 79 53 114 131 102 233 -6 58 -34 120
-54 120 -5 0 -10 9 -10 20 0 11 -4 20 -10 20 -11 0 -4 -107 10 -144 19 -50
-21 -108 -48 -68 -7 11 -22 31 -33 43 -24 28 -24 47 1 134 11 38 20 90 21 115
2 71 11 94 44 104 17 5 40 13 51 18 17 8 28 5 52 -12 26 -19 32 -20 51 -8 11
7 27 26 35 43 18 39 29 162 15 171 -6 3 -40 8 -76 11 -76 5 -87 9 -78 31 3 8
-3 25 -15 37 l-20 21 31 18 c36 21 53 59 39 86 -6 11 -8 30 -4 44 3 13 1 27
-5 30 -6 4 -11 16 -11 27 0 11 -7 33 -15 50 -9 17 -16 56 -16 94 -1 45 -4 62
-13 59 -22 -8 -47 51 -40 95 10 64 35 47 50 -34 7 -40 21 -58 36 -49 15 9 8
36 -23 97 -36 71 -30 99 25 122 63 27 101 93 61 109 -10 3 -12 25 -8 90 7 97
-4 133 -49 171 -22 19 -36 23 -56 19 -35 -8 -92 -51 -92 -69 0 -7 -16 -24 -37
-37 -20 -12 -50 -32 -66 -42 -23 -15 -36 -17 -66 -10 -31 8 -36 13 -38 39 -3
62 -30 140 -48 144 -13 2 -16 -1 -12 -13 4 -10 1 -16 -9 -16 -10 0 -13 6 -9
19 6 21 -19 49 -30 31 -4 -7 -16 -2 -32 14 -24 24 -24 25 -7 51 17 27 40 29
38 3 -1 -10 6 -13 21 -10 17 3 23 0 22 -13 -1 -10 3 -20 10 -22 8 -3 10 9 7
38 -4 41 -4 42 16 24 23 -20 34 -16 24 9 -3 9 -14 16 -24 16 -20 0 -43 23 -33
33 3 4 18 7 32 7 37 0 51 12 44 38 -6 25 -31 30 -29 6 0 -9 -5 -19 -13 -22
-11 -4 -13 2 -8 24 3 16 9 37 12 47 5 12 2 17 -9 17 -10 0 -16 8 -16 22 0 20
1 20 19 4 17 -16 19 -16 24 5 4 15 -1 27 -16 40 -26 22 -24 21 -66 9 -39 -11
-57 -4 -41 15 8 10 6 15 -9 20 -23 7 -27 20 -11 30 6 3 10 17 10 31 0 14 4 34
10 44 7 13 5 27 -7 50 -15 31 -17 32 -30 14 -38 -52 -87 -104 -99 -104 -17 0
-18 16 -3 26 6 3 -2 14 -20 25 -21 12 -31 27 -31 42 0 13 -9 32 -20 42 -11 10
-20 15 -20 10 0 -4 -7 -2 -15 5 -8 6 -19 9 -25 5 -7 -4 -14 2 -17 14 -3 12
-12 21 -19 21 -8 0 -14 10 -14 25 0 18 -5 25 -20 25 -12 0 -24 10 -29 24 -5
12 -24 32 -43 43 -39 23 -98 37 -98 23 0 -10 -79 -34 -87 -26 -3 3 -18 -1 -34
-9 -68 -36 -117 2 -65 50 33 30 33 37 1 29 -19 -5 -25 -2 -25 10 0 9 -8 16
-20 16 -11 0 -34 16 -51 35 -17 19 -36 35 -43 35 -6 0 -20 10 -30 21 -15 19
-25 21 -69 16 -41 -5 -57 -2 -75 11 l-23 18 20 26 c18 23 19 27 5 39 -13 10
-16 9 -21 -10 -4 -16 -11 -21 -24 -18 -16 4 -18 1 -13 -21 l7 -27 -21 20 -21
20 40 37 c21 20 39 41 39 46 0 5 -12 15 -26 22 -17 10 -24 20 -20 33 7 29 -25
86 -50 87 -12 0 -26 6 -33 13 -14 17 -125 21 -154 5 -12 -6 -28 -19 -35 -30
-21 -29 -51 -41 -68 -28 -7 7 -25 10 -38 6 -15 -4 -32 1 -48 14 -34 26 -64 17
-72 -23 -6 -27 -16 -36 -62 -58 -33 -15 -66 -24 -81 -21 -25 5 -25 6 -19 63 7
60 -3 77 -23 42 -8 -14 -10 -2 -11 49 0 62 -2 68 -31 92 -18 16 -43 26 -61 26
-47 0 -158 -36 -208 -68 -61 -39 -104 -52 -166 -52 -71 0 -95 11 -118 54 -22
41 -41 48 -32 11 7 -28 -5 -33 -28 -10 -8 8 -19 15 -25 15 -6 0 -11 6 -11 13
0 16 -88 79 -100 72 -5 -3 -18 3 -30 15 -11 11 -29 20 -41 20 -15 0 -19 5 -14
19 5 17 -2 19 -72 25 -43 3 -94 8 -113 11 -31 6 -39 2 -75 -32z m75 -47 c0 -3
-4 -8 -10 -11 -5 -3 -10 -1 -10 4 0 6 5 11 10 11 6 0 10 -2 10 -4z m-535 -41
c0 -15 -6 -19 -24 -17 -33 3 -36 8 -21 27 17 21 45 15 45 -10z m495 15 c0 -5
-5 -10 -11 -10 -5 0 -7 5 -4 10 3 6 8 10 11 10 2 0 4 -4 4 -10z m360 -52 c28
-28 39 -43 30 -46 -7 -3 -21 5 -31 17 -21 26 -29 27 -29 1 0 -11 -5 -20 -12
-20 -6 0 -20 -8 -30 -17 -18 -16 -19 -16 -25 5 -3 15 -13 22 -29 22 -15 0 -24
6 -24 15 0 9 9 15 21 15 17 0 19 3 10 14 -19 22 9 26 31 4 10 -10 26 -18 35
-18 13 0 14 3 5 12 -14 14 -16 38 -4 38 4 0 28 -19 52 -42z m-652 -25 c-4 -22
-22 -20 -26 1 -2 10 3 16 13 16 10 0 15 -7 13 -17z m182 7 c0 -5 -4 -10 -10
-10 -5 0 -10 5 -10 10 0 6 5 10 10 10 6 0 10 -4 10 -10z m-59 -43 c-1 -12 -15
-9 -19 4 -3 6 1 10 8 8 6 -3 11 -8 11 -12z m1123 7 c24 -9 21 -54 -4 -54 -23
0 -35 22 -26 45 6 17 8 17 30 9z m-1099 -54 c3 -5 1 -10 -4 -10 -6 0 -11 5
-11 10 0 6 2 10 4 10 3 0 8 -4 11 -10z m-635 -145 c16 -19 -5 -29 -47 -22 -27
4 -27 5 -5 12 12 4 22 11 22 16 0 14 16 11 30 -6z m2560 -2 c0 -5 -4 -15 -10
-23 -11 -18 -25 -7 -17 15 6 15 27 21 27 8z m-2748 -238 c0 -5 -5 -11 -11 -13
-6 -2 -11 4 -11 13 0 9 5 15 11 13 6 -2 11 -8 11 -13z m-622 -174 c0 -6 -4
-12 -9 -15 -5 -3 -12 -22 -15 -41 -4 -20 -11 -33 -17 -30 -14 9 -11 48 7 73
16 23 34 29 34 13z m243 -47 c21 -8 -1 -64 -25 -64 -10 0 -23 -9 -30 -20 -7
-11 -19 -20 -26 -20 -19 0 -11 71 8 80 8 4 24 12 35 18 11 6 21 11 22 11 1 1
8 -2 16 -5z m3982 -103 c-3 -6 -11 -11 -17 -11 -6 0 -6 6 2 15 14 17 26 13 15
-4z m295 -296 c0 -8 -4 -15 -9 -15 -13 0 -22 16 -14 24 11 11 23 6 23 -9z
m410 -360 c0 -8 -4 -15 -10 -15 -5 0 -10 7 -10 15 0 8 5 15 10 15 6 0 10 -7
10 -15z m-5137 -90 c32 -13 35 -18 28 -37 -7 -19 -20 -25 -69 -33 -33 -5 -64
-13 -68 -17 -10 -11 -54 -10 -54 0 0 16 60 76 88 88 36 16 34 16 75 -1z m5131
-17 c4 -17 2 -28 -4 -28 -5 0 -10 14 -10 32 0 36 4 35 14 -4z m-76 0 c16 -16
15 -50 -1 -73 -13 -16 -14 -15 -10 12 3 17 0 34 -6 37 -13 8 -15 36 -3 36 4 0
13 -5 20 -12z m-38 -54 c0 -8 -4 -12 -10 -9 -5 3 -10 13 -10 21 0 8 5 12 10 9
6 -3 10 -13 10 -21z m-5030 -83 c45 -38 35 -47 -57 -54 -58 -5 -72 -3 -77 9
-6 16 10 54 28 66 25 17 73 7 106 -21z m5040 -191 c0 -5 -4 -10 -10 -10 -5 0
-10 5 -10 10 0 6 5 10 10 10 6 0 10 -4 10 -10z m-10 -51 c0 -6 -4 -7 -10 -4
-5 3 -10 11 -10 16 0 6 5 7 10 4 6 -3 10 -11 10 -16z m-5050 -298 c0 -37 -14
-70 -25 -59 -10 10 -26 88 -20 98 3 4 14 6 25 3 15 -4 20 -14 20 -42z m5117
-123 c-3 -8 -6 -5 -6 6 -1 11 2 17 5 13 3 -3 4 -12 1 -19z m13 -148 c0 -5 -8
-10 -17 -10 -10 0 -27 -7 -37 -15 -19 -14 -36 -12 -36 5 0 9 46 28 73 29 9 1
17 -3 17 -9z m-4921 -34 c19 -23 -4 -28 -24 -6 -15 17 -16 20 -3 20 9 0 21 -6
27 -14z m1281 -255 c0 -5 -9 -11 -19 -14 -14 -3 -18 -1 -14 9 6 15 33 19 33 5z
m308 -212 c62 -12 119 -28 127 -35 7 -8 21 -14 30 -14 9 0 38 -22 65 -49 77
-77 56 -99 -105 -106 -27 -1 -117 -8 -198 -14 -120 -10 -154 -9 -178 1 -21 9
-29 18 -25 31 2 9 0 17 -4 17 -5 0 -7 11 -4 25 3 18 -2 27 -18 36 -23 12 -22
12 9 23 39 13 43 28 11 38 -18 5 -15 6 14 7 26 1 40 7 48 21 7 13 21 20 40 20
16 0 32 5 35 10 9 14 26 13 153 -11z m2107 -129 c3 -5 1 -10 -4 -10 -6 0 -11
5 -11 10 0 6 2 10 4 10 3 0 8 -4 11 -10z m29 -79 c-6 -6 -24 19 -24 34 1 6 7
1 15 -9 8 -11 12 -22 9 -25z m-1970 -64 c52 -16 43 -31 -21 -35 -44 -2 -53 0
-53 14 0 13 -3 14 -14 5 -18 -15 -108 -10 -113 6 -8 22 137 29 201 10z m71
-27 c3 -5 1 -10 -4 -10 -6 0 -11 5 -11 10 0 6 2 10 4 10 3 0 8 -4 11 -10z m91
-45 c15 -14 23 -25 18 -25 -14 0 -70 49 -57 50 7 0 24 -11 39 -25z m-198 -41
c4 -27 -26 -40 -46 -20 -21 20 -8 48 20 44 14 -2 24 -11 26 -24z m2922 -123
c0 -23 -38 -91 -50 -91 -20 0 -18 21 6 64 27 49 44 59 44 27z m-4315 -111 c21
-16 42 -30 46 -30 5 0 9 -4 9 -10 0 -5 -13 -10 -30 -10 -20 0 -30 -5 -30 -15
0 -25 -27 -17 -54 16 -28 32 -29 38 -20 63 9 24 37 19 79 -14z m2353 -1041
c24 -5 64 -7 90 -3 57 7 76 -8 74 -61 -2 -41 7 -44 36 -10 44 50 69 -4 38 -80
-17 -39 -39 -45 -69 -18 -18 17 -20 17 -42 -10 -30 -33 -36 -34 -74 -1 l-31
26 -11 -26 c-14 -29 -54 -35 -90 -13 -18 10 -23 9 -40 -15 -20 -26 -25 -28
-99 -28 -45 0 -82 5 -85 11 -5 7 -13 5 -24 -5 -14 -13 -31 -15 -82 -10 -67 7
-99 25 -99 56 0 22 -16 24 -24 3 -8 -21 -49 -19 -77 4 -24 19 -24 19 -50 -11
-21 -26 -30 -30 -52 -24 -17 4 -27 13 -27 24 0 10 -5 23 -11 29 -17 17 -20
120 -4 133 19 16 48 -1 75 -45 26 -43 40 -45 40 -6 0 38 21 54 84 62 28 4 74
13 101 19 28 6 75 8 105 5 30 -3 75 -2 100 3 51 11 184 6 248 -9z m288 -146
c-11 -11 -17 4 -9 23 7 18 8 18 11 1 2 -10 1 -21 -2 -24z m-990 -281 c16 -11
35 -50 26 -55 -8 -6 -39 18 -61 46 -12 15 -11 17 5 17 11 0 24 -4 30 -8z m204
-67 c0 -8 -7 -15 -15 -15 -8 0 -15 7 -15 15 0 8 7 15 15 15 8 0 15 -7 15 -15z
m-120 -255 c0 -5 -4 -10 -10 -10 -5 0 -10 5 -10 10 0 6 5 10 10 10 6 0 10 -4
10 -10z m670 -1560 c0 -5 -4 -10 -10 -10 -5 0 -10 5 -10 10 0 6 5 10 10 10 6
0 10 -4 10 -10z"/>
<path d="M8410 10623 c0 -8 73 -73 83 -73 15 0 6 15 -30 47 -37 32 -53 40 -53
26z"/>
<path d="M7770 10540 c0 -5 5 -10 10 -10 6 0 10 5 10 10 0 6 -4 10 -10 10 -5
0 -10 -4 -10 -10z"/>
<path d="M7095 10220 c-3 -5 -1 -10 4 -10 6 0 11 5 11 10 0 6 -2 10 -4 10 -3
0 -8 -4 -11 -10z"/>
<path d="M9890 10195 c-13 -34 -13 -34 10 -28 11 3 26 0 33 -6 8 -6 16 -8 20
-5 10 10 -3 32 -29 49 -23 15 -25 15 -34 -10z"/>
<path d="M7198 10163 c7 -3 16 -2 19 1 4 3 -2 6 -13 5 -11 0 -14 -3 -6 -6z"/>
<path d="M7025 10131 c-6 -11 9 -23 19 -14 9 9 7 23 -3 23 -6 0 -12 -4 -16 -9z"/>
<path d="M2145 10023 c-16 -9 -59 -38 -96 -64 -195 -142 -401 -182 -602 -115
-93 31 -125 32 -208 6 -72 -22 -158 -76 -239 -148 l-55 -49 72 -17 c126 -28
204 -36 390 -36 267 0 392 31 573 142 105 63 234 189 245 236 12 57 -22 77
-80 45z"/>
<path d="M10315 9970 c-3 -5 -1 -10 4 -10 6 0 11 5 11 10 0 6 -2 10 -4 10 -3
0 -8 -4 -11 -10z"/>
<path d="M10260 9950 c0 -5 4 -10 9 -10 6 0 13 5 16 10 3 6 -1 10 -9 10 -9 0
-16 -4 -16 -10z"/>
<path d="M6513 9261 c-11 -17 -10 -18 13 -7 26 12 32 26 11 26 -7 0 -17 -8
-24 -19z"/>
<path d="M1220 9030 l0 -160 30 0 30 0 0 160 0 160 -30 0 -30 0 0 -160z"/>
<path d="M1658 9063 l-3 -128 -32 -3 -33 -3 0 90 0 91 -30 0 -30 0 0 -91 0
-90 -47 3 -48 3 -3 88 -3 87 -29 0 -30 0 0 -115 0 -114 -29 -22 c-26 -19 -28
-25 -19 -45 15 -33 32 -30 77 15 l39 39 122 4 c162 4 160 1 160 184 l0 134
-30 0 -29 0 -3 -127z"/>
<path d="M1770 9030 l0 -160 30 0 30 0 0 160 0 160 -30 0 -30 0 0 -160z"/>
<path d="M2112 9033 l3 -158 28 -3 27 -3 0 160 0 161 -30 0 -31 0 3 -157z"/>
<path d="M2000 8995 l0 -114 -29 -22 c-26 -19 -28 -25 -19 -45 13 -28 20 -29
54 -8 44 30 54 63 54 189 l0 115 -30 0 -30 0 0 -115z"/>
<path d="M2239 9108 c0 -2 -2 -15 -4 -29 -3 -24 0 -27 35 -33 49 -8 70 -29 70
-71 0 -38 -12 -45 -76 -45 -44 0 -45 -1 -42 -27 3 -26 7 -28 52 -31 89 -6 126
26 126 108 0 62 -15 89 -62 110 -36 16 -96 27 -99 18z"/>
<path d="M1040 9087 c-46 -16 -73 -66 -64 -119 5 -34 3 -38 -15 -38 -17 0 -21
-6 -21 -30 l0 -30 115 0 115 0 0 30 c0 28 -1 29 -57 32 -52 3 -59 6 -71 30
-20 42 -2 68 48 68 39 0 40 1 40 35 0 32 -3 35 -27 34 -16 0 -44 -5 -63 -12z"/>
<path d="M1520 8835 c-11 -13 -11 -19 3 -32 21 -21 49 -9 45 19 -4 28 -30 35
-48 13z"/>
<path d="M1660 8555 c0 -70 4 -115 10 -115 6 0 10 45 10 115 0 70 -4 115 -10
115 -6 0 -10 -45 -10 -115z"/>
<path d="M1732 8560 l-2 -115 46 -3 c62 -4 84 16 84 75 0 30 -6 49 -20 63 -21
21 -65 27 -75 10 -14 -22 -24 -8 -28 38 -2 26 -4 -5 -5 -68z m99 4 c7 -9 13
-31 13 -49 0 -64 -58 -89 -90 -40 -18 28 -13 90 9 98 25 11 55 6 68 -9z"/>
<path d="M890 8551 l0 -111 56 0 c48 0 59 4 85 29 24 25 29 38 29 80 0 75 -28
103 -108 109 l-62 4 0 -111z m127 67 c18 -17 23 -32 23 -69 0 -67 -23 -92 -86
-93 l-49 -1 -3 93 -3 92 47 0 c35 0 54 -6 71 -22z"/>
<path d="M1515 8648 c-2 -7 -20 -55 -40 -106 -39 -105 -38 -102 -26 -102 5 0
15 16 21 35 11 34 13 35 60 35 47 0 49 -1 60 -35 6 -19 16 -35 21 -35 12 0 14
-5 -30 111 -37 99 -55 126 -66 97z m34 -55 c7 -21 15 -44 17 -50 4 -9 -7 -13
-36 -13 -29 0 -40 4 -36 13 2 6 10 29 17 50 7 20 15 37 19 37 4 0 12 -17 19
-37z"/>
<path d="M1116 8581 c-10 -11 -13 -22 -8 -25 6 -3 13 1 16 10 4 10 16 14 38
12 25 -2 34 -8 36 -25 3 -20 -1 -23 -30 -23 -48 0 -70 -19 -66 -55 3 -29 5
-30 61 -31 l57 -2 0 63 c0 72 -14 95 -59 95 -15 0 -36 -9 -45 -19z m84 -84 c0
-29 -18 -47 -46 -47 -43 0 -56 53 -16 63 44 12 62 7 62 -16z"/>
<path d="M1270 8521 c0 -47 4 -81 10 -81 6 0 10 27 10 60 0 55 2 62 25 72 14
6 25 15 25 20 0 12 -13 10 -39 -9 -14 -9 -21 -11 -17 -5 3 6 2 13 -4 17 -6 4
-10 -22 -10 -74z"/>
<path d="M1918 8589 c-10 -5 -18 -17 -18 -26 0 -15 2 -15 18 0 24 22 68 22 76
1 9 -24 -2 -34 -38 -34 -52 0 -86 -51 -52 -79 8 -7 35 -11 60 -9 l46 3 0 67
c0 56 -3 69 -19 78 -25 13 -51 12 -73 -1z m74 -99 c-3 -29 -19 -41 -52 -38
-31 4 -39 36 -14 55 11 8 30 13 44 11 20 -2 24 -8 22 -28z"/>
<path d="M2067 8594 c-11 -11 -8 -154 3 -154 6 0 10 21 10 48 0 50 21 92 46
92 8 0 14 5 14 10 0 16 -26 12 -41 -6 -12 -15 -14 -15 -19 1 -3 9 -9 13 -13 9z"/>
<path d="M2178 8589 c-10 -5 -18 -17 -18 -26 0 -15 2 -15 18 0 24 22 68 22 76
1 9 -24 -2 -34 -38 -34 -52 0 -86 -51 -52 -79 8 -7 35 -11 60 -9 l46 3 0 67
c0 56 -3 69 -19 78 -25 13 -51 12 -73 -1z m74 -99 c-3 -29 -19 -41 -52 -38
-31 4 -39 36 -14 55 11 8 30 13 44 11 20 -2 24 -8 22 -28z"/>
<path d="M2338 8589 c-10 -5 -18 -18 -18 -27 1 -15 2 -15 14 1 20 27 70 19 74
-10 3 -20 -1 -23 -32 -23 -37 0 -66 -21 -66 -48 0 -35 16 -43 68 -40 l52 3 0
67 c0 56 -3 69 -19 78 -25 13 -51 12 -73 -1z m72 -93 c0 -30 -22 -49 -52 -44
-50 7 -25 68 29 68 18 0 23 -6 23 -24z"/>
<path d="M11440 8310 c0 -5 5 -10 11 -10 5 0 7 5 4 10 -3 6 -8 10 -11 10 -2 0
-4 -4 -4 -10z"/>
<path d="M11512 8158 c-14 -14 -16 -28 -3 -28 9 0 24 30 18 36 -2 2 -9 -2 -15
-8z"/>
<path d="M4120 7817 c-19 -12 -43 -38 -54 -57 -20 -33 -21 -53 -24 -410 -4
-417 0 -461 49 -510 93 -92 266 -43 284 82 12 81 1 801 -12 823 -10 16 -12
-69 -13 -417 l0 -438 -85 0 -85 0 0 440 0 440 87 0 86 0 -19 21 c-46 53 -156
66 -214 26z"/>
<path d="M2634 7821 c-122 -7 -150 -18 -184 -74 -27 -43 -27 -122 0 -162 11
-16 48 -46 82 -65 81 -46 92 -75 85 -210 -7 -109 -17 -144 -47 -160 -13 -7
-79 -11 -178 -11 -192 1 -197 4 -213 122 -27 207 -176 342 -375 342 -138 0
-229 -56 -320 -198 -34 -53 -67 -89 -109 -120 -79 -58 -99 -80 -127 -140 -21
-46 -23 -67 -26 -250 -3 -192 -2 -202 20 -245 56 -110 230 -109 286 3 12 24
22 52 22 61 0 59 44 70 132 35 84 -34 181 -31 293 10 l90 33 785 4 c860 5 836
3 927 65 56 39 89 84 114 155 29 83 24 271 -11 358 -53 137 -200 236 -350 236
-162 0 -275 -60 -472 -247 -69 -65 -91 -75 -103 -45 -4 9 -12 103 -19 207 -13
213 -23 243 -86 275 -47 23 -85 27 -216 21z m51 -76 c56 -55 18 -155 -59 -155
-42 0 -86 46 -86 90 0 16 11 42 26 59 33 40 83 43 119 6z m206 -1 c35 -37 33
-98 -4 -130 -16 -13 -41 -24 -57 -24 -16 0 -41 11 -57 24 -60 52 -22 156 57
156 26 0 43 -7 61 -26z m27 -439 l-3 -245 88 0 87 0 0 63 c0 108 34 183 99
222 19 11 59 44 89 74 32 31 83 67 121 85 61 29 74 31 171 31 120 0 170 -17
229 -76 65 -64 76 -105 76 -275 0 -147 -1 -151 -28 -192 -15 -23 -46 -54 -69
-69 l-42 -28 -832 -3 -832 -2 -51 -35 c-57 -38 -115 -50 -196 -42 -68 7 -121
35 -172 90 -50 54 -59 71 -76 138 l-14 52 -21 -21 c-21 -21 -22 -31 -22 -217
l0 -195 -85 0 -85 0 0 213 c0 184 3 217 19 252 27 60 78 104 143 123 54 16 56
18 62 55 9 52 30 90 79 144 55 60 107 85 188 91 125 9 230 -52 286 -166 26
-53 28 -65 28 -184 l0 -128 293 0 292 0 0 238 c0 131 3 242 7 245 3 4 44 7 91
7 l84 0 -4 -245z"/>
<path d="M1815 7356 c-61 -27 -70 -47 -73 -170 -3 -98 0 -115 18 -144 41 -65
131 -78 184 -25 35 35 49 93 44 183 -5 88 -26 132 -74 155 -39 18 -60 18 -99
1z m27 -161 c17 -37 0 -80 -31 -80 -30 0 -46 40 -32 78 14 35 47 36 63 2z"/>
<path d="M3504 7361 c-54 -14 -57 -20 -28 -54 41 -49 54 -89 54 -172 l0 -75
73 0 c99 0 107 9 107 119 0 92 -16 141 -53 166 -29 19 -109 27 -153 16z"/>
<path d="M3276 7198 c-10 -14 -16 -44 -16 -80 l0 -58 50 0 50 0 0 58 c0 63
-19 102 -50 102 -10 0 -26 -10 -34 -22z"/>
<path d="M9241 7279 c-83 -32 -104 -46 -96 -67 4 -11 0 -13 -16 -9 -16 4 -19
2 -15 -10 4 -9 1 -22 -5 -30 -19 -23 -4 -25 32 -5 19 11 48 22 65 25 30 6 30
5 -23 -49 -29 -31 -53 -64 -53 -75 0 -23 7 -23 41 -1 73 47 120 74 123 71 2
-2 7 -26 11 -53 l7 -49 -56 5 c-31 3 -56 1 -56 -3 0 -4 24 -16 53 -27 42 -16
69 -19 137 -15 47 3 99 6 115 6 17 1 36 6 43 10 6 5 17 5 22 2 6 -4 17 -1 25
5 8 7 22 10 30 6 9 -3 41 0 73 8 32 7 67 10 78 6 32 -12 215 9 193 23 -35 21
-164 77 -179 77 -12 0 -23 7 -26 15 -4 8 -17 15 -30 15 -17 0 -24 6 -24 20 0
40 47 32 120 -21 14 -10 43 -25 65 -34 l40 -16 -50 47 c-116 109 -220 143
-451 148 -112 2 -127 0 -193 -25z m309 -20 c0 -6 -7 -18 -16 -27 -15 -14 -17
-14 -26 2 -7 12 -13 14 -21 7 -7 -5 -37 -9 -68 -9 -30 0 -66 -3 -80 -7 -40
-12 -9 12 36 28 48 18 175 22 175 6z m93 -16 c35 -7 34 -19 -3 -38 -17 -9 -30
-11 -30 -5 0 5 -13 10 -30 10 -18 0 -30 5 -30 13 0 22 24 38 45 32 11 -4 32
-9 48 -12z m67 -27 c0 -16 -37 -32 -48 -21 -7 7 25 35 40 35 4 0 8 -6 8 -14z
m-192 -68 c16 -16 15 -23 -3 -42 -22 -22 -45 -9 -45 25 0 31 25 40 48 17z"/>
<path d="M10441 6495 c-48 -56 -39 -75 42 -89 44 -8 67 5 67 39 0 22 -51 85
-69 85 -5 0 -23 -16 -40 -35z"/>
<path d="M8883 6390 c-40 -24 -42 -39 -5 -39 34 0 142 -17 164 -26 9 -4 24
-18 33 -31 19 -29 34 -30 69 -3 29 23 34 39 10 39 -8 0 -30 11 -47 24 -76 57
-166 72 -224 36z"/>
<path d="M10225 6320 c-8 -13 4 -32 16 -25 12 8 12 35 0 35 -6 0 -13 -4 -16
-10z"/>
<path d="M7947 6123 c-4 -3 -7 -11 -7 -17 0 -6 5 -5 12 2 6 6 9 14 7 17 -3 3
-9 2 -12 -2z"/>
<path d="M2294 6076 c-36 -18 -57 -38 -75 -68 -23 -42 -24 -47 -21 -238 3
-215 24 -466 43 -520 30 -86 83 -141 173 -181 38 -17 80 -23 205 -29 133 -7
166 -12 212 -33 127 -56 147 -59 286 -47 347 31 800 30 811 -1 2 -5 14 -9 26
-9 12 0 44 -16 71 -34 27 -19 52 -33 57 -30 5 3 20 -1 33 -10 13 -9 30 -16 37
-16 21 1 54 34 73 73 25 52 97 85 212 97 129 14 163 0 185 -71 25 -86 103
-140 182 -125 67 13 126 84 126 153 0 15 -9 58 -21 95 l-22 67 21 59 c32 87
44 198 40 378 -3 137 -6 164 -24 198 -56 108 -243 108 -298 1 -17 -33 -22 -65
-26 -187 -4 -113 -9 -151 -21 -163 -13 -13 -17 -13 -37 1 -20 14 -22 24 -22
107 -1 140 -25 429 -38 453 -18 34 -70 73 -110 82 -30 8 -169 9 -269 3 -40 -2
-101 -68 -118 -126 -9 -29 -24 -60 -35 -70 -28 -26 -168 -41 -244 -27 -86 16
-370 24 -416 12 -95 -25 -153 -107 -155 -215 0 -33 3 -64 6 -70 13 -21 31
-103 27 -126 -7 -49 -42 -56 -308 -64 -236 -7 -246 -6 -270 13 l-25 20 3 264
c3 258 3 264 -20 308 -27 53 -79 86 -153 95 -42 5 -58 2 -101 -19z m226 -395
c0 -295 2 -342 16 -355 13 -14 64 -16 405 -16 l389 0 0 240 0 240 85 0 85 0 0
-240 0 -240 50 0 50 0 0 240 0 240 85 0 85 0 0 -240 0 -240 50 0 50 0 0 240 0
240 85 0 85 0 0 -240 0 -240 130 0 130 0 2 243 3 242 85 0 85 0 0 -243 0 -242
113 0 c62 0 122 5 133 10 18 10 19 24 19 240 l0 230 90 0 90 0 0 -215 c0 -251
-7 -297 -58 -355 -73 -86 27 -80 -1232 -80 -1064 0 -1117 1 -1155 19 -22 10
-52 31 -67 47 -57 61 -58 72 -58 459 l0 355 85 0 85 0 0 -339z m1725 314 c56
-55 18 -155 -59 -155 -42 0 -86 46 -86 90 0 16 11 42 26 59 33 40 83 43 119 6z
m206 -1 c35 -37 33 -98 -4 -130 -16 -13 -41 -24 -57 -24 -16 0 -41 11 -57 24
-60 52 -22 156 57 156 26 0 43 -7 61 -26z m-294 -294 c8 -15 13 -65 13 -126 0
-84 -3 -106 -18 -124 -23 -28 -59 -20 -68 15 -3 13 -4 74 -2 135 2 85 7 113
18 120 23 15 43 8 57 -20z m728 -643 c21 -17 27 -32 27 -62 0 -100 -144 -117
-168 -20 -7 30 12 81 35 95 29 17 79 11 106 -13z"/>
<path d="M5186 6079 c-45 -11 -71 -31 -95 -74 -14 -26 -16 -72 -15 -370 l0
-340 29 -64 c50 -111 139 -163 300 -177 44 -3 88 -10 97 -15 10 -5 32 -39 50
-76 26 -51 42 -71 70 -86 46 -23 100 -17 143 17 l29 23 -32 -5 c-49 -7 -80 5
-97 38 -22 42 -19 73 10 105 22 23 32 26 69 23 l43 -3 -10 32 c-9 27 -6 45 16
101 28 69 37 111 13 57 -18 -41 -63 -84 -111 -106 -33 -15 -66 -19 -178 -19
-150 0 -189 9 -241 58 -64 60 -66 70 -66 465 l0 357 81 0 c73 0 80 2 68 16
-32 39 -109 59 -173 43z"/>
<path d="M765 6066 c-73 -33 -98 -88 -90 -200 l7 -81 -50 -75 c-28 -42 -57
-100 -65 -130 -30 -109 -30 -154 -1 -361 5 -40 3 -49 -19 -71 -27 -27 -1 -24
-415 -45 l-133 -6 3 -86 3 -86 95 -8 c132 -11 296 -2 420 23 210 42 287 61
369 92 74 27 92 30 145 24 34 -4 144 -11 246 -15 169 -7 191 -10 250 -35 123
-52 237 -53 333 -4 52 26 133 102 162 153 51 86 77 324 49 435 -28 105 -106
195 -210 242 -39 17 -68 22 -144 22 -157 1 -250 -51 -340 -189 -27 -41 -49
-65 -61 -65 -11 0 -33 22 -57 58 -21 31 -51 75 -66 97 -26 38 -27 44 -21 112
8 87 -13 146 -66 184 -32 22 -44 24 -174 26 -102 2 -148 -1 -170 -11z m169
-77 c33 -39 33 -79 0 -118 -53 -63 -144 -26 -144 59 0 85 91 122 144 59z m201
6 c35 -34 35 -96 0 -130 -55 -56 -145 -15 -145 65 0 80 90 121 145 65z m-34
-233 c63 -30 117 -85 145 -146 21 -45 24 -66 24 -178 l0 -128 98 0 97 0 0 128
c0 119 2 131 28 184 56 115 161 175 288 166 81 -6 138 -36 197 -104 62 -70 75
-119 70 -282 -4 -158 -15 -189 -91 -259 -73 -68 -100 -78 -202 -78 -93 0 -151
19 -184 59 -12 14 -46 16 -242 16 l-229 0 0 194 c0 184 -1 195 -23 227 -13 19
-39 40 -61 48 -52 20 -111 0 -143 -48 -20 -30 -23 -46 -23 -132 0 -115 4 -119
94 -119 l56 0 0 -85 0 -85 -75 0 c-116 0 -186 39 -226 125 -25 55 -27 258 -2
331 21 63 110 154 173 177 64 23 172 18 231 -11z"/>
<path d="M1701 5603 c-49 -24 -71 -79 -71 -178 0 -101 22 -154 73 -178 43 -21
58 -21 102 -3 58 25 75 65 75 181 0 116 -17 156 -75 181 -44 18 -62 17 -104
-3z m29 -195 c0 -32 -27 -50 -41 -27 -12 20 -11 53 3 67 17 17 38 -4 38 -40z"/>
<path d="M5381 5673 c-1 -289 1 -334 15 -347 12 -12 38 -16 115 -16 55 0 109
5 120 10 18 10 19 24 19 240 l0 230 73 0 72 1 -23 19 c-52 43 -149 34 -197
-18 -35 -37 -44 -77 -51 -222 -4 -69 -11 -133 -16 -142 -13 -26 -64 -24 -79 4
-13 25 -25 182 -28 386 -1 78 -6 153 -11 165 -5 14 -9 -105 -9 -310z"/>
<path d="M10216 5831 c-10 -15 6 -43 20 -37 8 3 35 -6 61 -19 38 -21 56 -24
101 -20 85 8 85 19 1 25 -61 5 -85 11 -118 33 -43 29 -56 32 -65 18z"/>
<path d="M10186 5782 c-4 -7 -1 -21 7 -33 11 -14 17 -17 22 -9 4 7 3 15 -2 19
-6 3 -12 13 -15 21 -3 10 -6 11 -12 2z"/>
<path d="M10162 5730 c-7 -12 -10 -25 -6 -31 3 -6 -2 -16 -12 -23 -13 -10 -14
-15 -5 -21 19 -11 33 9 36 54 2 23 3 41 2 41 -1 0 -8 -9 -15 -20z"/>
<path d="M5834 5525 c0 -82 2 -115 3 -72 2 43 2 110 0 150 -1 40 -3 5 -3 -78z"/>
<path d="M8160 5434 c0 -14 3 -14 15 -4 8 7 15 14 15 16 0 2 -7 4 -15 4 -8 0
-15 -7 -15 -16z"/>
<path d="M9305 5400 c-3 -5 -2 -10 4 -10 5 0 13 5 16 10 3 6 2 10 -4 10 -5 0
-13 -4 -16 -10z"/>
<path d="M9256 5365 c-11 -8 -15 -15 -10 -15 6 0 19 7 30 15 10 8 15 14 9 14
-5 0 -19 -6 -29 -14z"/>
<path d="M9153 5322 c-24 -9 -43 -20 -43 -24 0 -5 17 -1 38 8 20 9 43 17 50
17 6 0 12 4 12 9 0 11 -7 10 -57 -10z"/>
<path d="M5821 5314 c0 -11 3 -14 6 -6 3 7 2 16 -1 19 -3 4 -6 -2 -5 -13z"/>
<path d="M9045 5280 l-20 -9 20 0 c11 0 27 4 35 9 13 9 13 10 0 9 -8 0 -24 -4
-35 -9z"/>
<path d="M8985 5268 c-16 -5 -37 -10 -45 -12 -51 -8 -91 -19 -96 -27 -3 -5 10
-6 28 -3 59 10 148 38 148 46 0 4 -1 8 -2 7 -2 0 -16 -5 -33 -11z"/>
<path d="M8670 5020 c-13 -8 -12 -10 3 -10 9 0 17 5 17 10 0 12 -1 12 -20 0z"/>
<path d="M8700 4900 c0 -5 7 -10 15 -10 8 0 15 5 15 10 0 6 -7 10 -15 10 -8 0
-15 -4 -15 -10z"/>
<path d="M3780 4370 c-54 -9 -100 -41 -122 -84 -16 -32 -21 -65 -25 -160 -6
-170 -15 -175 -138 -64 -40 37 -49 52 -62 108 -19 85 -44 124 -97 149 -104 51
-202 -4 -226 -126 -6 -32 -15 -69 -21 -83 -10 -26 -170 -180 -187 -180 -18 0
-24 34 -32 170 -8 141 -16 182 -31 158 -5 -7 -9 -165 -9 -350 l0 -338 94 0 94
0 4 133 c5 155 21 199 97 270 149 139 411 78 475 -111 11 -31 16 -84 16 -169
l0 -123 90 0 90 0 0 355 0 355 88 0 88 0 -4 -155 -4 -155 77 37 c141 67 297
57 380 -24 69 -67 80 -106 80 -285 0 -155 8 -181 18 -57 8 100 -9 221 -42 292
-56 122 -146 178 -296 184 -142 6 -148 12 -170 134 -6 34 -30 68 -67 97 -22
17 -112 29 -158 22z m-405 -115 c56 -55 18 -155 -59 -155 -40 0 -86 46 -86 86
0 82 90 125 145 69z"/>
<path d="M1800 4353 c-8 -3 -38 -21 -67 -40 -50 -34 -54 -35 -97 -24 -123 31
-187 -3 -289 -156 -29 -42 -47 -52 -132 -74 -82 -20 -144 -56 -168 -97 -12
-20 -22 -41 -23 -47 0 -5 -2 -14 -3 -20 -6 -26 1 -186 10 -230 23 -111 61
-187 125 -250 63 -63 116 -88 215 -101 24 -3 267 -6 539 -7 l495 -2 59 -29
c33 -16 61 -37 63 -47 3 -11 8 -19 12 -19 4 0 18 -32 31 -71 29 -89 24 -146
-26 -284 l-36 -100 8 -130 c9 -147 8 -166 -9 -177 -6 -4 -400 -8 -874 -8 -858
0 -863 0 -920 -22 -69 -25 -147 -99 -183 -173 l-25 -50 0 -400 0 -400 25 -50
c36 -74 114 -147 185 -175 54 -21 81 -24 268 -28 l209 -4 -24 -27 c-40 -43
-64 -121 -38 -121 6 0 10 -7 10 -16 0 -8 4 -13 9 -10 24 15 31 -165 8 -193
-14 -17 -203 -141 -215 -141 -15 0 -72 -66 -72 -83 0 -32 32 -68 83 -94 55
-28 87 -28 218 0 121 26 152 9 212 -115 15 -31 32 -60 38 -64 24 -14 69 -99
69 -128 -1 -20 -15 -51 -40 -86 l-40 -55 396 -3 c217 -1 572 -1 787 0 l392 3
-51 50 c-45 44 -54 59 -69 120 -36 147 -47 290 -49 633 l-2 332 443 2 c244 1
458 2 475 2 l33 1 36 -202 c21 -111 40 -207 44 -213 15 -25 40 -2 123 115 l90
125 127 -143 c71 -78 134 -143 142 -145 7 -2 46 20 86 48 63 43 91 70 150 148
7 9 -15 37 -77 101 -94 96 -95 101 -13 101 39 0 44 4 75 50 17 27 32 54 32 58
0 5 -22 19 -50 32 -27 13 -50 24 -50 25 0 2 16 29 35 61 20 32 40 76 46 97 6
23 9 180 7 415 l-3 377 -34 63 c-38 70 -89 119 -160 154 -45 22 -56 23 -411
29 -201 3 -367 6 -369 7 -2 1 0 9 3 18 5 13 1 15 -19 12 -13 -3 -22 -1 -19 3
2 4 -15 13 -38 20 -23 6 -75 29 -115 50 -40 21 -80 39 -89 39 -9 0 -18 9 -21
20 -3 11 -12 21 -19 21 -8 1 -20 2 -26 3 -7 1 -12 8 -10 17 1 9 -5 16 -13 16
-16 0 -17 -4 -17 -57 0 -56 1 -62 12 -55 6 3 10 -2 10 -12 0 -10 9 -33 20 -51
11 -18 20 -37 20 -42 0 -7 -83 -9 -232 -8 l-233 3 0 161 c1 152 16 267 37 280
13 8 9 92 -6 128 -8 19 -47 69 -87 111 -40 42 -74 83 -75 90 -1 7 10 25 25 39
40 39 124 50 270 36 143 -14 302 -16 531 -7 96 3 276 9 400 13 387 11 474 37
561 173 39 61 37 73 -3 20 -18 -23 -53 -53 -77 -66 l-44 -23 -1447 0 c-1618 0
-1497 -6 -1586 73 -29 25 -58 64 -75 102 -28 58 -29 65 -29 218 l0 157 85 0
85 0 0 -142 c0 -228 12 -238 285 -238 l175 0 0 355 0 355 88 0 87 0 -3 -355
-4 -355 331 0 331 0 0 355 0 355 92 0 91 0 -19 21 c-35 39 -73 51 -140 47 -74
-5 -110 -26 -137 -81 -15 -29 -21 -75 -27 -203 -8 -159 -20 -226 -44 -250 -12
-12 -47 -12 -108 1 -34 7 -39 5 -48 -19 -6 -16 -6 -35 0 -51 8 -20 5 -27 -16
-44 -31 -24 -149 -46 -198 -37 -63 12 -68 36 -64 325 l3 246 -25 45 c-32 57
-76 80 -150 79 -30 0 -62 -3 -70 -6z m-130 -153 c0 -27 -3 -30 -32 -30 -47 0
-60 -12 -56 -51 3 -33 4 -34 56 -37 50 -3 52 -4 52 -33 l0 -29 -100 0 -100 0
0 30 c0 17 5 30 13 30 8 0 11 14 9 45 -4 39 0 49 26 75 26 25 38 30 81 30 50
0 51 -1 51 -30z m485 -1897 c-124 -97 -138 -143 -44 -143 16 0 29 -4 29 -8 0
-4 8 -8 18 -8 9 0 27 -4 40 -8 16 -5 22 -3 22 8 0 24 117 23 122 -1 3 -15 5
-15 18 -2 41 41 135 56 164 26 49 -52 58 -92 57 -258 0 -137 -22 -269 -43
-269 -6 0 -5 -7 2 -15 11 -13 7 -19 -11 -17 -3 1 -13 -20 -21 -46 -12 -36 -14
-78 -11 -179 l5 -133 -320 0 -321 0 -10 38 c-11 42 -20 149 -21 235 l0 57 -60
0 -60 0 0 55 0 55 35 0 35 0 0 160 0 160 30 0 c25 0 30 4 30 25 0 13 -8 40
-17 60 -28 59 -90 60 -133 3 -24 -31 -25 -41 -25 -158 0 -109 6 -202 21 -315
2 -16 7 -80 10 -141 6 -98 5 -114 -12 -140 -59 -91 -78 -94 -524 -94 l-376 0
-51 25 c-28 15 -63 41 -78 60 -53 70 -55 90 -55 459 0 391 2 405 74 475 74 73
40 70 825 71 l704 0 -48 -37z m1089 6 c-25 -26 -29 -38 -28 -87 0 -71 19 -108
93 -183 l56 -58 54 16 c73 21 181 15 218 -13 41 -31 70 -78 77 -128 6 -40 17
-58 39 -68 13 -5 42 63 30 70 -6 4 -16 25 -23 47 -7 22 -23 54 -36 72 -13 17
-24 34 -24 38 0 10 -63 87 -95 117 -99 91 -121 109 -137 114 -10 3 -18 10 -18
15 0 5 -7 9 -15 9 -8 0 -15 8 -15 17 0 9 -7 25 -17 35 -16 17 -1 18 436 18
361 0 458 -3 485 -14 49 -21 102 -71 128 -124 22 -46 23 -55 26 -375 2 -215
-1 -346 -8 -382 -11 -52 -58 -131 -84 -141 -7 -3 -149 63 -315 145 -166 83
-311 151 -321 151 -32 0 -47 -93 -30 -199 7 -47 15 -101 18 -118 l4 -33 -467
0 -466 0 7 23 c15 51 33 85 61 118 35 39 45 81 36 144 l-6 45 -87 0 c-84 0
-88 -1 -94 -23 -11 -44 -122 -137 -164 -137 -4 0 -16 23 -26 51 -16 43 -17 53
-5 60 8 5 17 9 21 9 3 0 20 14 37 31 l31 31 0 204 0 204 60 0 60 0 0 -160 0
-160 81 0 81 0 -6 38 c-3 20 -8 64 -11 97 -3 33 -13 77 -22 98 -15 35 -15 38
3 51 17 13 18 20 6 108 -6 52 -18 110 -26 129 -7 19 -17 55 -20 82 l-7 47 227
0 228 0 -30 -31z m106 21 c-20 -13 -40 -13 -40 0 0 6 12 10 28 10 21 0 24 -2
12 -10z m-626 -186 c37 -36 7 -104 -45 -104 -29 0 -59 31 -59 60 0 50 69 79
104 44z m1422 -761 l359 -178 -125 -3 c-68 -1 -129 -7 -135 -13 -6 -6 38 -57
129 -148 l138 -139 -59 -40 -60 -40 -138 149 c-77 82 -146 149 -155 149 -9 0
-51 -47 -94 -105 -43 -58 -80 -104 -82 -102 -3 3 -144 633 -144 643 0 7 6 5
366 -173z m-1630 -278 c3 -20 3 -62 -1 -93 -12 -96 -14 -204 -4 -231 11 -27
13 -207 4 -251 -3 -14 -10 -68 -16 -120 -14 -123 -30 -143 -103 -134 -56 6
-133 40 -216 94 -30 20 -97 61 -149 90 -120 69 -156 106 -165 167 -9 70 -7
229 5 308 6 39 11 100 11 138 l1 67 313 0 313 0 7 -35z"/>
<path d="M3534 1871 c42 -34 56 -38 56 -17 0 20 -22 35 -61 42 l-34 7 39 -32z"/>
<path d="M757 3994 c-3 -4 -26 -8 -49 -9 -187 -11 -246 -20 -294 -43 -30 -14
-31 -16 -20 -51 6 -20 30 -55 53 -77 69 -67 69 -67 94 -54 19 11 21 10 16 -4
-8 -21 12 -20 30 2 12 14 14 14 10 1 -3 -9 1 -16 9 -16 7 0 11 4 8 9 -3 4 1 9
8 9 48 5 60 8 88 19 16 7 30 17 30 22 0 5 5 6 10 3 6 -4 23 6 38 22 15 16 35
32 45 36 9 3 17 11 17 17 0 6 5 8 10 5 19 -12 11 71 -8 88 -19 18 -84 32 -95
21z"/>
<path d="M3260 3862 c-54 -27 -70 -69 -70 -189 l0 -103 125 0 125 0 0 114 c0
125 -10 150 -70 181 -38 20 -67 19 -110 -3z"/>
<path d="M4144 3869 c-22 -5 -65 -24 -95 -42 -71 -42 -89 -78 -89 -179 l0 -78
170 0 170 0 16 25 c13 20 16 43 12 113 -6 99 -20 137 -59 158 -31 16 -64 16
-125 3z m26 -128 c27 -51 -5 -91 -72 -91 -38 0 -68 20 -68 46 0 8 11 26 25 39
31 32 99 35 115 6z"/>
<path d="M7380 3270 c0 -5 5 -10 11 -10 5 0 7 5 4 10 -3 6 -8 10 -11 10 -2 0
-4 -4 -4 -10z"/>
<path d="M7415 3223 c24 -38 324 -333 339 -333 6 0 27 -13 46 -28 19 -16 42
-32 50 -35 8 -4 35 -21 60 -37 57 -38 110 -63 118 -55 8 8 -30 34 -50 35 -10
0 -22 9 -28 20 -6 11 -17 20 -24 20 -8 0 -19 6 -25 14 -7 8 -24 17 -38 21 -15
3 -33 15 -41 26 -8 11 -32 32 -55 46 -23 14 -66 47 -96 72 -60 50 -231 224
-244 247 -4 8 -13 14 -19 14 -6 0 -3 -12 7 -27z"/>
<path d="M5635 3071 c-3 -11 -1 -57 4 -103 5 -45 10 -105 10 -132 0 -26 3 -56
6 -66 4 -12 -1 -19 -14 -23 -15 -4 -20 2 -24 32 -4 20 -13 77 -21 126 -29 179
-52 176 -44 -6 3 -60 2 -109 -3 -109 -5 0 -9 9 -9 19 0 25 -18 37 -33 22 -7
-7 -6 -16 6 -29 9 -10 20 -40 23 -66 4 -25 11 -49 15 -52 12 -7 12 -34 0 -34
-5 0 -11 9 -14 21 -7 27 -27 15 -27 -17 0 -17 5 -24 20 -24 11 0 20 -4 20 -9
0 -5 -9 -7 -20 -4 -23 6 -27 -19 -10 -76 8 -28 6 -38 -7 -53 -15 -17 -15 -21
1 -55 14 -29 15 -38 4 -44 -10 -7 -11 -12 0 -29 17 -28 15 -38 -8 -45 -27 -8
-25 -21 5 -47 14 -12 25 -27 25 -33 0 -6 16 -45 36 -86 31 -62 37 -86 39 -151
3 -63 1 -78 -11 -78 -8 0 -17 7 -20 15 -7 17 -59 21 -69 5 -7 -11 11 -48 35
-72 22 -21 35 -111 19 -136 -10 -16 -8 -25 9 -50 12 -16 22 -36 22 -44 0 -8 5
-19 11 -25 13 -13 4 -33 -17 -33 -8 0 -14 -6 -14 -12 0 -7 -3 -23 -6 -34 -5
-17 4 -27 45 -52 41 -25 51 -38 57 -67 3 -19 4 -44 1 -55 -3 -11 -1 -20 4 -20
5 0 11 -11 15 -24 3 -14 13 -27 21 -30 8 -4 13 -12 10 -20 -3 -7 -1 -18 5 -24
5 -5 7 -23 3 -40 -6 -29 -8 -30 -53 -27 -35 2 -50 8 -61 25 -19 28 -77 65
-114 72 -24 5 -27 3 -21 -16 3 -11 16 -32 29 -46 12 -14 25 -33 28 -42 4 -10
13 -18 22 -18 8 0 15 -3 15 -8 0 -8 33 -26 125 -68 33 -15 62 -31 65 -35 3 -5
47 -29 98 -54 51 -25 92 -50 92 -55 0 -5 -31 -6 -72 -3 -42 4 -69 2 -66 -3 4
-5 -5 -10 -18 -10 -13 -1 -31 -4 -39 -8 -17 -6 -21 -46 -5 -46 6 0 19 -20 29
-43 11 -24 36 -58 57 -75 33 -27 37 -35 27 -50 -9 -16 -4 -22 51 -47 52 -25
57 -30 36 -33 -29 -5 -197 14 -285 32 l-60 12 1 -106 c1 -58 2 -205 3 -326 l1
-222 419 -1 c354 -1 420 1 431 14 6 7 13 39 14 70 2 31 8 61 14 67 9 9 12 9
12 0 0 -7 16 -29 35 -51 19 -21 35 -41 35 -44 0 -3 -17 -10 -37 -14 -37 -7
-37 -8 27 -16 36 -5 97 -10 135 -13 39 -2 107 -6 153 -10 56 -4 82 -3 82 5 0
13 -61 94 -101 136 -17 17 -54 59 -85 95 -30 36 -60 72 -68 81 -7 9 -24 36
-37 60 -13 24 -28 50 -33 58 -6 7 -16 30 -23 49 -10 31 -10 39 4 54 9 10 20
18 25 18 8 0 171 -111 206 -141 18 -15 42 -4 42 21 0 22 35 29 43 8 5 -14 54
30 49 45 -2 8 50 -2 58 -12 13 -15 111 -62 120 -56 5 3 23 -1 39 -10 17 -8 41
-15 56 -15 14 0 25 -5 25 -11 0 -5 5 -7 10 -4 6 4 31 -7 57 -24 26 -17 58 -31
73 -31 15 0 36 -10 50 -25 35 -37 99 -66 163 -72 43 -4 60 -11 68 -25 6 -11
17 -17 24 -14 7 2 19 -2 26 -10 7 -9 21 -13 30 -11 12 3 20 -2 24 -14 4 -11
16 -29 28 -39 l21 -20 -22 0 c-26 0 -31 -34 -7 -44 8 -3 15 -12 15 -20 0 -23
33 -36 89 -36 59 0 61 4 26 75 -14 28 -25 61 -25 74 0 26 -61 144 -117 226
-19 28 -72 88 -118 135 -46 47 -112 115 -148 153 -52 55 -69 67 -95 67 -21 0
-32 5 -32 14 0 7 -10 20 -22 29 -13 8 -45 36 -73 62 -27 25 -63 53 -79 62 -41
21 -125 80 -161 112 -45 41 -109 81 -128 81 -9 0 -20 6 -24 14 -4 7 -27 23
-50 35 -24 12 -43 26 -43 31 0 6 -9 10 -19 10 -11 0 -23 5 -26 10 -4 6 -29 22
-57 36 -29 15 -58 32 -66 40 -7 8 -20 14 -27 14 -7 0 -33 15 -57 33 -56 41
-102 67 -121 67 -8 0 -20 7 -27 15 -7 8 -22 15 -35 15 -12 0 -32 9 -45 20 -24
21 -60 27 -60 10 0 -5 -14 -10 -30 -10 -44 0 -66 26 -173 205 -7 11 -22 34
-34 52 -13 17 -23 34 -23 37 0 4 -13 25 -30 48 -16 22 -30 49 -30 58 0 19 -23
43 -33 34 -7 -8 -25 53 -42 146 -14 76 -51 262 -80 400 -9 41 -34 167 -56 280
-34 179 -92 400 -104 400 -2 0 -6 -9 -10 -19z m307 -1263 c-9 -9 -12 -7 -12
12 0 19 3 21 12 12 9 -9 9 -15 0 -24z m648 -1248 c0 -5 -4 -10 -9 -10 -6 0
-13 5 -16 10 -3 6 1 10 9 10 9 0 16 -4 16 -10z"/>
<path d="M5511 2910 c-1 -18 16 -46 23 -40 2 3 -2 16 -9 30 -8 15 -14 19 -14
10z"/>
<path d="M8050 2730 c0 -5 9 -10 21 -10 11 0 17 5 14 10 -3 6 -13 10 -21 10
-8 0 -14 -4 -14 -10z"/>
<path d="M8135 2705 c34 -16 64 -20 50 -6 -6 5 -26 12 -45 15 l-35 6 30 -15z"/>
<path d="M7 2163 c-4 -3 -7 -102 -7 -220 0 -164 3 -213 13 -213 34 0 143 22
177 36 57 23 84 73 76 141 -7 62 -47 172 -76 213 -12 17 -36 34 -58 40 -42 11
-115 13 -125 3z"/>
<path d="M5380 1435 c0 -18 79 -87 90 -80 19 12 9 40 -22 65 -34 27 -68 35
-68 15z"/>
<path d="M3295 570 c-4 -11 -11 -18 -16 -15 -25 16 7 -123 36 -155 9 -10 14
-24 10 -29 -3 -7 2 -11 14 -11 23 0 87 -83 96 -126 12 -57 15 -140 5 -124 -7
11 -9 5 -8 -23 1 -21 5 -40 10 -43 4 -3 8 -14 8 -24 0 -18 11 -19 231 -20
l231 0 -27 31 c-14 18 -37 53 -50 78 -60 118 -149 201 -216 203 -16 1 -29 7
-29 13 0 17 -21 24 -51 18 -16 -3 -30 1 -38 11 -8 9 -11 16 -7 16 3 0 -2 8
-11 19 -10 10 -28 36 -41 57 -13 22 -39 50 -57 64 -19 14 -35 31 -35 38 0 33
-46 51 -55 22z m170 -296 c7 -21 11 -41 9 -43 -7 -7 -11 1 -34 59 -17 44 -18
52 -5 39 9 -9 22 -34 30 -55z"/>
<path d="M11201 554 c0 -11 3 -14 6 -6 3 7 2 16 -1 19 -3 4 -6 -2 -5 -13z"/>
<path d="M11190 479 c0 -11 5 -17 10 -14 6 3 10 13 10 21 0 8 -4 14 -10 14 -5
0 -10 -9 -10 -21z"/>
<path d="M11186 435 c-9 -23 -8 -25 9 -25 17 0 19 9 6 28 -7 11 -10 10 -15 -3z"/>
<path d="M6890 411 c0 -25 6 -27 13 -6 4 8 2 17 -3 20 -6 4 -10 -3 -10 -14z"/>
<path d="M11830 369 c-69 -4 -174 -13 -235 -20 -146 -15 -321 -15 -369 1 -22
7 -42 8 -47 3 -5 -5 -11 -69 -14 -143 -3 -74 -8 -143 -11 -153 -3 -9 -2 -26 1
-37 6 -20 15 -20 426 -20 l419 0 0 190 0 190 -22 -1 c-13 -1 -79 -5 -148 -10z"/>
<path d="M7630 158 c0 -18 5 -28 15 -28 19 0 19 11 0 36 -14 18 -14 18 -15 -8z"/>
<path d="M7707 143 c-25 -25 17 -59 55 -44 13 6 17 10 9 10 -8 1 -24 10 -36
21 -12 11 -25 17 -28 13z"/>
</g>
</svg>
