<svg version="1.2" xmlns="http://www.w3.org/2000/svg" viewBox="0 0 79 101" width="79" height="101">
	<title>New Project</title>
	<style>
		.s0 { opacity: .39;fill: #ff5151 } 
		.s1 { fill: #000000 } 
	</style>
	<path id="&lt;Compound Path&gt;" class="s0" d="m40.6 81.6c7.4 0.2 12.8-4.1 16.3-8.6 4.5-5.5 7.5-12.1 9.4-18.7 3.8-13.5 4.4-25-1.4-39.2-0.1-1.2-0.6-2.4-1.2-3.5-0.8-1.1-1.6-2.3-2.4-3.5q0.1 0.2 0.2 0.3c-0.3-0.6-1.1-1.3-1.7-1.6-0.6-0.5-1.4-0.9-2.1-1.2q-1.2-0.5-2.5-0.9c-1.6-0.3-3.2-0.5-4.7-0.3-4.1 0.3-7.6 2-10.7 3.8q-4.8 2.7-8.7 6.2c-10.3 9.2-15.8 22.1-15.1 35.5 0.3 6.5 2 13.6 5.9 19.8 3.7 5.9 10.3 11.8 18.7 11.9z"/>
	<path id="&lt;Path&gt;" class="s1" d="m24.5 83.8c2.9-6-4.2-10.1-7.1-14.2-3.8-5.6-4-12.8-2.6-19.2 1.6-7.2 4.7-14.1 8.3-20.5 3.6-6.3 8-12.2 13.1-17.5 2.3-2.5 4.8-4.8 7.5-6.7 2.8-1.8 6.5-3.7 9.9-3.2 3.8 0.7 4.8 5.5 5.8 8.6q1.4 4.6 2.3 9.4c2.4 13 1.7 26.4-0.3 39.5-0.5 3.8-1 7.9-2.2 11.5-1.3 3.9-4 6.6-7.7 8.1-3.5 1.4-7.2 1.1-10.8 2-2.9 0.7-5.5 2.6-6 5.7-0.1 1 1.4 1.2 1.5 0.2 0.7-4.5 6.2-4.7 9.7-5.1 3-0.3 5.9-1.1 8.5-2.6 6.3-3.7 7.1-10.9 8.2-17.4 2.2-13.5 3-27.3 0.8-40.8q-0.8-4.8-2.2-9.5c-0.8-2.9-1.6-6.7-3.7-9.1-4.3-4.9-12.3-0.3-16.2 2.7-5.7 4.3-10.6 10.1-14.7 16-4.3 6.1-7.9 12.8-10.6 19.9-2.8 7.1-4.7 15-2.7 22.5 0.9 3.4 2.6 6.4 5 8.8 2.5 2.7 6.9 6.2 4.8 10.4-0.4 0.8 1 1.4 1.4 0.5z"/>
	<path id="&lt;Path&gt;" class="s1" d="m23 84.1c2.2 1.9 4.8 3.3 7.7 4q2.1 0.5 4.3 0.5c2.6 0 0.4 3-0.4 4-1.3 1.5-2.7 1.8-4.5 2-1.9 0.1-3.6-0.2-5.1-1.4-2.5-2-4.1-7.4-1.1-9.7 0.8-0.6-0.1-1.8-0.9-1.2-3 2.3-2.5 7.2-0.7 10.1 2.4 3.6 7 4.5 10.9 3.2 2.2-0.8 6.3-5.7 4.1-8-0.6-0.7-1.5-0.5-2.3-0.5q-2 0-3.9-0.5c-2.7-0.6-5.1-1.9-7.2-3.7-0.7-0.6-1.6 0.6-0.9 1.2z"/>
	<path id="&lt;Path&gt;" class="s1" d="m21.3 87.5c1.3 2.5 3.7 3.9 6.2 4.9 2.8 1.1 5.8 1.8 8.5 0.3 0.8-0.5 0.2-1.9-0.6-1.4-2.4 1.3-4.9 0.7-7.3-0.3-2.2-0.9-4.3-2-5.5-4.1-0.4-0.9-1.8-0.3-1.3 0.6z"/>
	<path id="&lt;Path&gt;" class="s1" d="m21.6 91c-0.1 1.7-0.5 3.9 0.1 5.6 0.5 1.5 2.1 2.4 3.4 3.1 1.4 0.7 3.1 1.2 4.6 0.4 1.6-0.9 2.6-2.8 3.4-4.4 0.5-0.8-0.9-1.4-1.4-0.5-0.6 1.1-1.4 2.7-2.5 3.4-1.4 1-3.1 0-4.4-0.8-1.1-0.7-1.8-1.5-1.8-2.9 0-1.3 0-2.5 0.1-3.8 0-0.9-1.5-1.1-1.5-0.1z"/>
	<path id="&lt;Path&gt;" class="s1" d="m30.4 85.7c2-10.1 6.3-19.6 10.6-28.9 0.4-0.9-1-1.5-1.4-0.6-4.4 9.5-8.7 19-10.7 29.3-0.2 1 1.3 1.2 1.5 0.2z"/>
	<path id="&lt;Path&gt;" class="s1" d="m40 55.3c-2-0.3-4-0.6-5.9-1.1-1-0.2-2.2-0.5-2.9-1.4-1.7-1.9 0.6-2.8 2-3.1 0.5-0.2 0.7-0.6 0.6-1.1-0.3-0.8-0.7-2-0.3-2.8 0.5-1 1.8-1 2.7-0.9 1.6 0.3 3 1.3 3.7 2.8 0.3 0.5 0.9 0.6 1.3 0.1 0.9-1 2.3-1.6 3.6-1.2 1.6 0.5 2.3 2.2 1.7 3.6-0.2 0.6 0.3 1.1 0.8 1.1 2.1-0.2 2.2 2.8 2.1 4.2 0 0.6 0 1.4-0.2 2-0.4 1-0.7 0.8-1.6 0.5-2.6-1-5.2-2-7.9-3-0.9-0.3-1.4 1.1-0.5 1.4q3.9 1.5 7.8 3c1.4 0.5 2.9 0.9 3.5-0.8 1.1-2.8 0.9-9-3.4-8.8q0.4 0.5 0.8 1c0.8-2 0-4.4-2-5.4-2.1-1-4.4-0.1-5.9 1.5q0.7 0.1 1.3 0.2c-1.2-2.4-3.8-4-6.5-3.7-3.1 0.4-3.2 3.4-2.4 5.8q0.3-0.5 0.6-1c-2.5 0.6-5.3 2.5-3.3 5.2 0.8 1.2 2.3 1.8 3.7 2.2 2.1 0.5 4.3 0.8 6.4 1.2 0.9 0.2 1.1-1.3 0.2-1.5z"/>
</svg>